<?xml version="1.0" encoding="us-ascii" standalone="no"?><svg xmlns="http://www.w3.org/2000/svg" xmlns:xlink="http://www.w3.org/1999/xlink" contentStyleType="text/css" height="2103px" preserveAspectRatio="none" style="width:1414px;height:2103px;background:#FFFFFF;" version="1.1" viewBox="0 0 1414 2103" width="1414px" zoomAndPan="magnify"><defs/><g><!--class UserStatus--><g id="elem_UserStatus"><rect codeLine="3" fill="#F1F1F1" height="100.8281" id="UserStatus" rx="2.5" ry="2.5" style="stroke:#181818;stroke-width:0.5;" width="172" x="7" y="33.5"/><ellipse cx="54.25" cy="49.5" fill="#EB937F" rx="11" ry="11" style="stroke:#181818;stroke-width:1.0;"/><path d="M53.1094,50.2969 L53.1094,52.7969 L57.4375,52.7969 L57.4375,51.875 Q57.4375,51.2656 57.6719,51 Q57.9219,50.7344 58.2969,50.7344 Q58.6719,50.7344 58.9063,51 Q59.1406,51.2656 59.1406,51.875 L59.1406,54.5 L51.1406,54.5 Q50.5156,54.5 50.25,54.2656 Q50,54.0313 50,53.6406 Q50,53.2656 50.2656,53.0313 Q50.5313,52.7969 51.1406,52.7969 L51.4063,52.7969 L51.4063,46.1406 L51.1406,46.1406 Q50.5156,46.1406 50.25,45.9063 Q50,45.6719 50,45.2813 Q50,44.9063 50.25,44.6719 Q50.5156,44.4375 51.1406,44.4375 L58.7656,44.4375 L58.7656,47.0313 Q58.7656,47.6406 58.5313,47.9063 Q58.3125,48.1563 57.9219,48.1563 Q57.5469,48.1563 57.3125,47.9063 Q57.0781,47.6406 57.0781,47.0313 L57.0781,46.1406 L53.1094,46.1406 L53.1094,48.5938 L54.5938,48.5938 Q54.5938,47.9375 54.7188,47.75 Q54.9844,47.3438 55.4531,47.3438 Q55.8281,47.3438 56.0625,47.6094 Q56.2969,47.8594 56.2969,48.4688 L56.2969,50.4375 Q56.2969,50.9844 56.1719,51.1719 Q55.9063,51.5625 55.4531,51.5625 Q54.9844,51.5625 54.7188,51.1563 Q54.5938,50.9688 54.5938,50.2969 L53.1094,50.2969 Z " fill="#000000"/><text fill="#000000" font-family="sans-serif" font-size="14" lengthAdjust="spacing" textLength="69" x="74.75" y="55.2285">UserStatus</text><line style="stroke:#181818;stroke-width:0.5;" x1="8" x2="178" y1="65.5" y2="65.5"/><text fill="#000000" font-family="sans-serif" font-size="14" lengthAdjust="spacing" textLength="49" x="13" y="84.0332">ACTIVE</text><text fill="#000000" font-family="sans-serif" font-size="14" lengthAdjust="spacing" textLength="160" x="13" y="101.6426">TEMPORATY_BLOCKED</text><text fill="#000000" font-family="sans-serif" font-size="14" lengthAdjust="spacing" textLength="158" x="13" y="119.252">PERMANENT_BLOCKED</text><line style="stroke:#181818;stroke-width:0.5;" x1="8" x2="178" y1="126.3281" y2="126.3281"/></g><!--class COrderStatus--><g id="elem_COrderStatus"><rect codeLine="8" fill="#F1F1F1" height="118.4375" id="COrderStatus" rx="2.5" ry="2.5" style="stroke:#181818;stroke-width:0.5;" width="119" x="214.5" y="25"/><ellipse cx="229.5" cy="41" fill="#EB937F" rx="11" ry="11" style="stroke:#181818;stroke-width:1.0;"/><path d="M228.3594,41.7969 L228.3594,44.2969 L232.6875,44.2969 L232.6875,43.375 Q232.6875,42.7656 232.9219,42.5 Q233.1719,42.2344 233.5469,42.2344 Q233.9219,42.2344 234.1563,42.5 Q234.3906,42.7656 234.3906,43.375 L234.3906,46 L226.3906,46 Q225.7656,46 225.5,45.7656 Q225.25,45.5313 225.25,45.1406 Q225.25,44.7656 225.5156,44.5313 Q225.7813,44.2969 226.3906,44.2969 L226.6563,44.2969 L226.6563,37.6406 L226.3906,37.6406 Q225.7656,37.6406 225.5,37.4063 Q225.25,37.1719 225.25,36.7813 Q225.25,36.4063 225.5,36.1719 Q225.7656,35.9375 226.3906,35.9375 L234.0156,35.9375 L234.0156,38.5313 Q234.0156,39.1406 233.7813,39.4063 Q233.5625,39.6563 233.1719,39.6563 Q232.7969,39.6563 232.5625,39.4063 Q232.3281,39.1406 232.3281,38.5313 L232.3281,37.6406 L228.3594,37.6406 L228.3594,40.0938 L229.8438,40.0938 Q229.8438,39.4375 229.9688,39.25 Q230.2344,38.8438 230.7031,38.8438 Q231.0781,38.8438 231.3125,39.1094 Q231.5469,39.3594 231.5469,39.9688 L231.5469,41.9375 Q231.5469,42.4844 231.4219,42.6719 Q231.1563,43.0625 230.7031,43.0625 Q230.2344,43.0625 229.9688,42.6563 Q229.8438,42.4688 229.8438,41.7969 L228.3594,41.7969 Z " fill="#000000"/><text fill="#000000" font-family="sans-serif" font-size="14" lengthAdjust="spacing" textLength="87" x="243.5" y="46.7285">COrderStatus</text><line style="stroke:#181818;stroke-width:0.5;" x1="215.5" x2="332.5" y1="57" y2="57"/><text fill="#000000" font-family="sans-serif" font-size="14" lengthAdjust="spacing" textLength="66" x="220.5" y="75.5332">AWAITING</text><text fill="#000000" font-family="sans-serif" font-size="14" lengthAdjust="spacing" textLength="60" x="220.5" y="93.1426">PENDING</text><text fill="#000000" font-family="sans-serif" font-size="14" lengthAdjust="spacing" textLength="55" x="220.5" y="110.752">CANCEL</text><text fill="#000000" font-family="sans-serif" font-size="14" lengthAdjust="spacing" textLength="65" x="220.5" y="128.3613">SUCCESS</text><line style="stroke:#181818;stroke-width:0.5;" x1="215.5" x2="332.5" y1="135.4375" y2="135.4375"/></g><!--class COrderDetailsStatus--><g id="elem_COrderDetailsStatus"><rect codeLine="14" fill="#F1F1F1" height="118.4375" id="COrderDetailsStatus" rx="2.5" ry="2.5" style="stroke:#181818;stroke-width:0.5;" width="162" x="369" y="25"/><ellipse cx="384" cy="41" fill="#EB937F" rx="11" ry="11" style="stroke:#181818;stroke-width:1.0;"/><path d="M382.8594,41.7969 L382.8594,44.2969 L387.1875,44.2969 L387.1875,43.375 Q387.1875,42.7656 387.4219,42.5 Q387.6719,42.2344 388.0469,42.2344 Q388.4219,42.2344 388.6563,42.5 Q388.8906,42.7656 388.8906,43.375 L388.8906,46 L380.8906,46 Q380.2656,46 380,45.7656 Q379.75,45.5313 379.75,45.1406 Q379.75,44.7656 380.0156,44.5313 Q380.2813,44.2969 380.8906,44.2969 L381.1563,44.2969 L381.1563,37.6406 L380.8906,37.6406 Q380.2656,37.6406 380,37.4063 Q379.75,37.1719 379.75,36.7813 Q379.75,36.4063 380,36.1719 Q380.2656,35.9375 380.8906,35.9375 L388.5156,35.9375 L388.5156,38.5313 Q388.5156,39.1406 388.2813,39.4063 Q388.0625,39.6563 387.6719,39.6563 Q387.2969,39.6563 387.0625,39.4063 Q386.8281,39.1406 386.8281,38.5313 L386.8281,37.6406 L382.8594,37.6406 L382.8594,40.0938 L384.3438,40.0938 Q384.3438,39.4375 384.4688,39.25 Q384.7344,38.8438 385.2031,38.8438 Q385.5781,38.8438 385.8125,39.1094 Q386.0469,39.3594 386.0469,39.9688 L386.0469,41.9375 Q386.0469,42.4844 385.9219,42.6719 Q385.6563,43.0625 385.2031,43.0625 Q384.7344,43.0625 384.4688,42.6563 Q384.3438,42.4688 384.3438,41.7969 L382.8594,41.7969 Z " fill="#000000"/><text fill="#000000" font-family="sans-serif" font-size="14" lengthAdjust="spacing" textLength="130" x="398" y="46.7285">COrderDetailsStatus</text><line style="stroke:#181818;stroke-width:0.5;" x1="370" x2="530" y1="57" y2="57"/><text fill="#000000" font-family="sans-serif" font-size="14" lengthAdjust="spacing" textLength="84" x="375" y="75.5332">NOT_READY</text><text fill="#000000" font-family="sans-serif" font-size="14" lengthAdjust="spacing" textLength="137" x="375" y="93.1426">PREPARING_ORDER</text><text fill="#000000" font-family="sans-serif" font-size="14" lengthAdjust="spacing" textLength="65" x="375" y="110.752">SUCCESS</text><text fill="#000000" font-family="sans-serif" font-size="14" lengthAdjust="spacing" textLength="81" x="375" y="128.3613">DELIVERING</text><line style="stroke:#181818;stroke-width:0.5;" x1="370" x2="530" y1="135.4375" y2="135.4375"/></g><!--class CPaymentStatus--><g id="elem_CPaymentStatus"><rect codeLine="20" fill="#F1F1F1" height="83.2188" id="CPaymentStatus" rx="2.5" ry="2.5" style="stroke:#181818;stroke-width:0.5;" width="137" x="24.5" y="231"/><ellipse cx="39.5" cy="247" fill="#EB937F" rx="11" ry="11" style="stroke:#181818;stroke-width:1.0;"/><path d="M38.3594,247.7969 L38.3594,250.2969 L42.6875,250.2969 L42.6875,249.375 Q42.6875,248.7656 42.9219,248.5 Q43.1719,248.2344 43.5469,248.2344 Q43.9219,248.2344 44.1563,248.5 Q44.3906,248.7656 44.3906,249.375 L44.3906,252 L36.3906,252 Q35.7656,252 35.5,251.7656 Q35.25,251.5313 35.25,251.1406 Q35.25,250.7656 35.5156,250.5313 Q35.7813,250.2969 36.3906,250.2969 L36.6563,250.2969 L36.6563,243.6406 L36.3906,243.6406 Q35.7656,243.6406 35.5,243.4063 Q35.25,243.1719 35.25,242.7813 Q35.25,242.4063 35.5,242.1719 Q35.7656,241.9375 36.3906,241.9375 L44.0156,241.9375 L44.0156,244.5313 Q44.0156,245.1406 43.7813,245.4063 Q43.5625,245.6563 43.1719,245.6563 Q42.7969,245.6563 42.5625,245.4063 Q42.3281,245.1406 42.3281,244.5313 L42.3281,243.6406 L38.3594,243.6406 L38.3594,246.0938 L39.8438,246.0938 Q39.8438,245.4375 39.9688,245.25 Q40.2344,244.8438 40.7031,244.8438 Q41.0781,244.8438 41.3125,245.1094 Q41.5469,245.3594 41.5469,245.9688 L41.5469,247.9375 Q41.5469,248.4844 41.4219,248.6719 Q41.1563,249.0625 40.7031,249.0625 Q40.2344,249.0625 39.9688,248.6563 Q39.8438,248.4688 39.8438,247.7969 L38.3594,247.7969 Z " fill="#000000"/><text fill="#000000" font-family="sans-serif" font-size="14" lengthAdjust="spacing" textLength="105" x="53.5" y="252.7285">CPaymentStatus</text><line style="stroke:#181818;stroke-width:0.5;" x1="25.5" x2="160.5" y1="263" y2="263"/><text fill="#000000" font-family="sans-serif" font-size="14" lengthAdjust="spacing" textLength="31" x="30.5" y="281.5332">PAID</text><text fill="#000000" font-family="sans-serif" font-size="14" lengthAdjust="spacing" textLength="49" x="30.5" y="299.1426">UNPAID</text><line style="stroke:#181818;stroke-width:0.5;" x1="25.5" x2="160.5" y1="306.2188" y2="306.2188"/></g><!--class CPaymentMethod--><g id="elem_CPaymentMethod"><rect codeLine="24" fill="#F1F1F1" height="100.8281" id="CPaymentMethod" rx="2.5" ry="2.5" style="stroke:#181818;stroke-width:0.5;" width="144" x="197" y="222"/><ellipse cx="212" cy="238" fill="#EB937F" rx="11" ry="11" style="stroke:#181818;stroke-width:1.0;"/><path d="M210.8594,238.7969 L210.8594,241.2969 L215.1875,241.2969 L215.1875,240.375 Q215.1875,239.7656 215.4219,239.5 Q215.6719,239.2344 216.0469,239.2344 Q216.4219,239.2344 216.6563,239.5 Q216.8906,239.7656 216.8906,240.375 L216.8906,243 L208.8906,243 Q208.2656,243 208,242.7656 Q207.75,242.5313 207.75,242.1406 Q207.75,241.7656 208.0156,241.5313 Q208.2813,241.2969 208.8906,241.2969 L209.1563,241.2969 L209.1563,234.6406 L208.8906,234.6406 Q208.2656,234.6406 208,234.4063 Q207.75,234.1719 207.75,233.7813 Q207.75,233.4063 208,233.1719 Q208.2656,232.9375 208.8906,232.9375 L216.5156,232.9375 L216.5156,235.5313 Q216.5156,236.1406 216.2813,236.4063 Q216.0625,236.6563 215.6719,236.6563 Q215.2969,236.6563 215.0625,236.4063 Q214.8281,236.1406 214.8281,235.5313 L214.8281,234.6406 L210.8594,234.6406 L210.8594,237.0938 L212.3438,237.0938 Q212.3438,236.4375 212.4688,236.25 Q212.7344,235.8438 213.2031,235.8438 Q213.5781,235.8438 213.8125,236.1094 Q214.0469,236.3594 214.0469,236.9688 L214.0469,238.9375 Q214.0469,239.4844 213.9219,239.6719 Q213.6563,240.0625 213.2031,240.0625 Q212.7344,240.0625 212.4688,239.6563 Q212.3438,239.4688 212.3438,238.7969 L210.8594,238.7969 Z " fill="#000000"/><text fill="#000000" font-family="sans-serif" font-size="14" lengthAdjust="spacing" textLength="112" x="226" y="243.7285">CPaymentMethod</text><line style="stroke:#181818;stroke-width:0.5;" x1="198" x2="340" y1="254" y2="254"/><text fill="#000000" font-family="sans-serif" font-size="14" lengthAdjust="spacing" textLength="84" x="203" y="272.5332">PAY_ONLINE</text><text fill="#000000" font-family="sans-serif" font-size="14" lengthAdjust="spacing" textLength="130" x="203" y="290.1426">PAY_ON_DELIVERY</text><text fill="#000000" font-family="sans-serif" font-size="14" lengthAdjust="spacing" textLength="117" x="203" y="307.752">PAY_VIA_PAYPAL</text><line style="stroke:#181818;stroke-width:0.5;" x1="198" x2="340" y1="314.8281" y2="314.8281"/></g><!--class BaseEntity--><g id="elem_BaseEntity"><rect codeLine="31" fill="#F1F1F1" height="153.6563" id="BaseEntity" rx="2.5" ry="2.5" style="stroke:#181818;stroke-width:0.5;" width="199" x="939.5" y="7"/><ellipse cx="1001.25" cy="23" fill="#ADD1B2" rx="11" ry="11" style="stroke:#181818;stroke-width:1.0;"/><path d="M1004.0156,18.875 Q1004.1719,18.6563 1004.3594,18.5469 Q1004.5469,18.4375 1004.7656,18.4375 Q1005.1406,18.4375 1005.375,18.7031 Q1005.6094,18.9531 1005.6094,19.5625 L1005.6094,21.0156 Q1005.6094,21.625 1005.375,21.8906 Q1005.1406,22.1563 1004.7656,22.1563 Q1004.4219,22.1563 1004.2188,21.9531 Q1004.0156,21.7656 1003.9063,21.25 Q1003.8594,20.8906 1003.6719,20.7031 Q1003.3438,20.3281 1002.7344,20.1094 Q1002.125,19.8906 1001.5,19.8906 Q1000.7344,19.8906 1000.0938,20.2188 Q999.4688,20.5469 998.9688,21.2969 Q998.4844,22.0469 998.4844,23.0781 L998.4844,24.1719 Q998.4844,25.4063 999.375,26.2344 Q1000.2656,27.0469 1001.8594,27.0469 Q1002.7969,27.0469 1003.4531,26.7969 Q1003.8438,26.6406 1004.2656,26.2031 Q1004.5313,25.9375 1004.6719,25.8594 Q1004.8281,25.7813 1005.0313,25.7813 Q1005.3594,25.7813 1005.6094,26.0469 Q1005.875,26.2969 1005.875,26.6406 Q1005.875,26.9844 1005.5313,27.3906 Q1005.0313,27.9688 1004.2344,28.2969 Q1003.1563,28.75 1001.8594,28.75 Q1000.3438,28.75 999.1406,28.125 Q998.1563,27.625 997.4688,26.5625 Q996.7813,25.4844 996.7813,24.2031 L996.7813,23.0469 Q996.7813,21.7188 997.3906,20.5781 Q998.0156,19.4219 999.1094,18.8125 Q1000.2031,18.1875 1001.4375,18.1875 Q1002.1719,18.1875 1002.8125,18.3594 Q1003.4688,18.5156 1004.0156,18.875 Z " fill="#000000"/><text fill="#000000" font-family="sans-serif" font-size="14" lengthAdjust="spacing" textLength="67" x="1021.75" y="28.7285">BaseEntity</text><line style="stroke:#181818;stroke-width:0.5;" x1="940.5" x2="1137.5" y1="39" y2="39"/><text fill="#000000" font-family="sans-serif" font-size="14" lengthAdjust="spacing" textLength="52" x="945.5" y="57.5332">String id</text><text fill="#000000" font-family="sans-serif" font-size="14" lengthAdjust="spacing" textLength="65" x="945.5" y="75.1426">int version</text><text fill="#000000" font-family="sans-serif" font-size="14" lengthAdjust="spacing" textLength="105" x="945.5" y="92.752">String createdBy</text><text fill="#000000" font-family="sans-serif" font-size="14" lengthAdjust="spacing" textLength="152" x="945.5" y="110.3613">LocalDateTime createAt</text><text fill="#000000" font-family="sans-serif" font-size="14" lengthAdjust="spacing" textLength="187" x="945.5" y="127.9707">LocalDateTime lastModifiedAt</text><text fill="#000000" font-family="sans-serif" font-size="14" lengthAdjust="spacing" textLength="132" x="945.5" y="145.5801">String lastModifiedBy</text><line style="stroke:#181818;stroke-width:0.5;" x1="940.5" x2="1137.5" y1="152.6563" y2="152.6563"/></g><!--class CUser--><g id="elem_CUser"><rect codeLine="41" fill="#F1F1F1" height="347.3594" id="CUser" rx="2.5" ry="2.5" style="stroke:#181818;stroke-width:0.5;" width="245" x="765.5" y="401"/><ellipse cx="864.25" cy="417" fill="#ADD1B2" rx="11" ry="11" style="stroke:#181818;stroke-width:1.0;"/><path d="M867.0156,412.875 Q867.1719,412.6563 867.3594,412.5469 Q867.5469,412.4375 867.7656,412.4375 Q868.1406,412.4375 868.375,412.7031 Q868.6094,412.9531 868.6094,413.5625 L868.6094,415.0156 Q868.6094,415.625 868.375,415.8906 Q868.1406,416.1563 867.7656,416.1563 Q867.4219,416.1563 867.2188,415.9531 Q867.0156,415.7656 866.9063,415.25 Q866.8594,414.8906 866.6719,414.7031 Q866.3438,414.3281 865.7344,414.1094 Q865.125,413.8906 864.5,413.8906 Q863.7344,413.8906 863.0938,414.2188 Q862.4688,414.5469 861.9688,415.2969 Q861.4844,416.0469 861.4844,417.0781 L861.4844,418.1719 Q861.4844,419.4063 862.375,420.2344 Q863.2656,421.0469 864.8594,421.0469 Q865.7969,421.0469 866.4531,420.7969 Q866.8438,420.6406 867.2656,420.2031 Q867.5313,419.9375 867.6719,419.8594 Q867.8281,419.7813 868.0313,419.7813 Q868.3594,419.7813 868.6094,420.0469 Q868.875,420.2969 868.875,420.6406 Q868.875,420.9844 868.5313,421.3906 Q868.0313,421.9688 867.2344,422.2969 Q866.1563,422.75 864.8594,422.75 Q863.3438,422.75 862.1406,422.125 Q861.1563,421.625 860.4688,420.5625 Q859.7813,419.4844 859.7813,418.2031 L859.7813,417.0469 Q859.7813,415.7188 860.3906,414.5781 Q861.0156,413.4219 862.1094,412.8125 Q863.2031,412.1875 864.4375,412.1875 Q865.1719,412.1875 865.8125,412.3594 Q866.4688,412.5156 867.0156,412.875 Z " fill="#000000"/><text fill="#000000" font-family="sans-serif" font-size="14" lengthAdjust="spacing" textLength="39" x="884.75" y="422.7285">CUser</text><line style="stroke:#181818;stroke-width:0.5;" x1="766.5" x2="1009.5" y1="433" y2="433"/><text fill="#000000" font-family="sans-serif" font-size="14" lengthAdjust="spacing" textLength="111" x="771.5" y="451.5332">Set&lt;CRole&gt; roles</text><text fill="#000000" font-family="sans-serif" font-size="14" lengthAdjust="spacing" textLength="104" x="771.5" y="469.1426">String username</text><text fill="#000000" font-family="sans-serif" font-size="14" lengthAdjust="spacing" textLength="101" x="771.5" y="486.752">String password</text><text fill="#000000" font-family="sans-serif" font-size="14" lengthAdjust="spacing" textLength="121" x="771.5" y="504.3613">String displayName</text><text fill="#000000" font-family="sans-serif" font-size="14" lengthAdjust="spacing" textLength="100" x="771.5" y="521.9707">String firstName</text><text fill="#000000" font-family="sans-serif" font-size="14" lengthAdjust="spacing" textLength="99" x="771.5" y="539.5801">String lastName</text><text fill="#000000" font-family="sans-serif" font-size="14" lengthAdjust="spacing" textLength="74" x="771.5" y="557.1895">String email</text><text fill="#000000" font-family="sans-serif" font-size="14" lengthAdjust="spacing" textLength="81" x="771.5" y="574.7988">String avatar</text><text fill="#000000" font-family="sans-serif" font-size="14" lengthAdjust="spacing" textLength="81" x="771.5" y="592.4082">String phone</text><text fill="#000000" font-family="sans-serif" font-size="14" lengthAdjust="spacing" textLength="111" x="771.5" y="610.0176">UserStatus status</text><text fill="#000000" font-family="sans-serif" font-size="14" lengthAdjust="spacing" textLength="65" x="771.5" y="627.627">CCart cart</text><text fill="#000000" font-family="sans-serif" font-size="14" lengthAdjust="spacing" textLength="233" x="771.5" y="645.2363">Set&lt;CRefreshToken&gt; refreshTokens</text><text fill="#000000" font-family="sans-serif" font-size="14" lengthAdjust="spacing" textLength="212" x="771.5" y="662.8457">Set&lt;CUserAddress&gt; userAddress</text><line style="stroke:#181818;stroke-width:0.5;" x1="766.5" x2="1009.5" y1="669.9219" y2="669.9219"/><ellipse cx="776.5" cy="684.2266" fill="#84BE84" rx="3" ry="3" style="stroke:#038048;stroke-width:1.0;"/><text fill="#000000" font-family="sans-serif" font-size="14" lengthAdjust="spacing" textLength="177" x="785.5" y="688.4551">addAddress(CUserAddress)</text><ellipse cx="776.5" cy="701.8359" fill="#84BE84" rx="3" ry="3" style="stroke:#038048;stroke-width:1.0;"/><text fill="#000000" font-family="sans-serif" font-size="14" lengthAdjust="spacing" textLength="217" x="785.5" y="706.0645">setDefaultAddress(CUserAddress)</text><ellipse cx="776.5" cy="719.4453" fill="#84BE84" rx="3" ry="3" style="stroke:#038048;stroke-width:1.0;"/><text fill="#000000" font-family="sans-serif" font-size="14" lengthAdjust="spacing" textLength="102" x="785.5" y="723.6738">addRole(CRole)</text><ellipse cx="776.5" cy="737.0547" fill="#84BE84" rx="3" ry="3" style="stroke:#038048;stroke-width:1.0;"/><text fill="#000000" font-family="sans-serif" font-size="14" lengthAdjust="spacing" textLength="125" x="785.5" y="741.2832">removeRole(CRole)</text></g><!--class CCart--><g id="elem_CCart"><rect codeLine="84" fill="#F1F1F1" height="224.0938" id="CCart" rx="2.5" ry="2.5" style="stroke:#181818;stroke-width:0.5;" width="215" x="447.5" y="826"/><ellipse cx="532.25" cy="842" fill="#ADD1B2" rx="11" ry="11" style="stroke:#181818;stroke-width:1.0;"/><path d="M535.0156,837.875 Q535.1719,837.6563 535.3594,837.5469 Q535.5469,837.4375 535.7656,837.4375 Q536.1406,837.4375 536.375,837.7031 Q536.6094,837.9531 536.6094,838.5625 L536.6094,840.0156 Q536.6094,840.625 536.375,840.8906 Q536.1406,841.1563 535.7656,841.1563 Q535.4219,841.1563 535.2188,840.9531 Q535.0156,840.7656 534.9063,840.25 Q534.8594,839.8906 534.6719,839.7031 Q534.3438,839.3281 533.7344,839.1094 Q533.125,838.8906 532.5,838.8906 Q531.7344,838.8906 531.0938,839.2188 Q530.4688,839.5469 529.9688,840.2969 Q529.4844,841.0469 529.4844,842.0781 L529.4844,843.1719 Q529.4844,844.4063 530.375,845.2344 Q531.2656,846.0469 532.8594,846.0469 Q533.7969,846.0469 534.4531,845.7969 Q534.8438,845.6406 535.2656,845.2031 Q535.5313,844.9375 535.6719,844.8594 Q535.8281,844.7813 536.0313,844.7813 Q536.3594,844.7813 536.6094,845.0469 Q536.875,845.2969 536.875,845.6406 Q536.875,845.9844 536.5313,846.3906 Q536.0313,846.9688 535.2344,847.2969 Q534.1563,847.75 532.8594,847.75 Q531.3438,847.75 530.1406,847.125 Q529.1563,846.625 528.4688,845.5625 Q527.7813,844.4844 527.7813,843.2031 L527.7813,842.0469 Q527.7813,840.7188 528.3906,839.5781 Q529.0156,838.4219 530.1094,837.8125 Q531.2031,837.1875 532.4375,837.1875 Q533.1719,837.1875 533.8125,837.3594 Q534.4688,837.5156 535.0156,837.875 Z " fill="#000000"/><text fill="#000000" font-family="sans-serif" font-size="14" lengthAdjust="spacing" textLength="37" x="552.75" y="847.7285">CCart</text><line style="stroke:#181818;stroke-width:0.5;" x1="448.5" x2="661.5" y1="858" y2="858"/><text fill="#000000" font-family="sans-serif" font-size="14" lengthAdjust="spacing" textLength="52" x="453.5" y="876.5332">String id</text><text fill="#000000" font-family="sans-serif" font-size="14" lengthAdjust="spacing" textLength="71" x="453.5" y="894.1426">CUser user</text><text fill="#000000" font-family="sans-serif" font-size="14" lengthAdjust="spacing" textLength="110" x="453.5" y="911.752">int numOfProduct</text><text fill="#000000" font-family="sans-serif" font-size="14" lengthAdjust="spacing" textLength="101" x="453.5" y="929.3613">BigDecimal total</text><text fill="#000000" font-family="sans-serif" font-size="14" lengthAdjust="spacing" textLength="137" x="453.5" y="946.9707">Set&lt;CCartItem&gt; items</text><line style="stroke:#181818;stroke-width:0.5;" x1="448.5" x2="661.5" y1="954.0469" y2="954.0469"/><ellipse cx="458.5" cy="968.3516" fill="#84BE84" rx="3" ry="3" style="stroke:#038048;stroke-width:1.0;"/><text fill="#000000" font-family="sans-serif" font-size="14" lengthAdjust="spacing" textLength="189" x="467.5" y="972.5801">buildTotalAndNumOfProduct()</text><ellipse cx="458.5" cy="985.9609" fill="#84BE84" rx="3" ry="3" style="stroke:#038048;stroke-width:1.0;"/><text fill="#000000" font-family="sans-serif" font-size="14" lengthAdjust="spacing" textLength="61" x="467.5" y="990.1895">setTotal()</text><ellipse cx="458.5" cy="1003.5703" fill="#84BE84" rx="3" ry="3" style="stroke:#038048;stroke-width:1.0;"/><text fill="#000000" font-family="sans-serif" font-size="14" lengthAdjust="spacing" textLength="121" x="467.5" y="1007.7988">setNumOfProduct()</text><ellipse cx="458.5" cy="1021.1797" fill="#84BE84" rx="3" ry="3" style="stroke:#038048;stroke-width:1.0;"/><text fill="#000000" font-family="sans-serif" font-size="14" lengthAdjust="spacing" textLength="150" x="467.5" y="1025.4082">addCartItem(CCartItem)</text><ellipse cx="458.5" cy="1038.7891" fill="#84BE84" rx="3" ry="3" style="stroke:#038048;stroke-width:1.0;"/><text fill="#000000" font-family="sans-serif" font-size="14" lengthAdjust="spacing" textLength="173" x="467.5" y="1043.0176">removeCartItem(CCartItem)</text></g><!--class CUserAddress--><g id="elem_CUserAddress"><rect codeLine="65" fill="#F1F1F1" height="171.2656" id="CUserAddress" rx="2.5" ry="2.5" style="stroke:#181818;stroke-width:0.5;" width="162" x="698" y="852.5"/><ellipse cx="730.55" cy="868.5" fill="#ADD1B2" rx="11" ry="11" style="stroke:#181818;stroke-width:1.0;"/><path d="M733.3156,864.375 Q733.4719,864.1563 733.6594,864.0469 Q733.8469,863.9375 734.0656,863.9375 Q734.4406,863.9375 734.675,864.2031 Q734.9094,864.4531 734.9094,865.0625 L734.9094,866.5156 Q734.9094,867.125 734.675,867.3906 Q734.4406,867.6563 734.0656,867.6563 Q733.7219,867.6563 733.5188,867.4531 Q733.3156,867.2656 733.2063,866.75 Q733.1594,866.3906 732.9719,866.2031 Q732.6438,865.8281 732.0344,865.6094 Q731.425,865.3906 730.8,865.3906 Q730.0344,865.3906 729.3938,865.7188 Q728.7688,866.0469 728.2688,866.7969 Q727.7844,867.5469 727.7844,868.5781 L727.7844,869.6719 Q727.7844,870.9063 728.675,871.7344 Q729.5656,872.5469 731.1594,872.5469 Q732.0969,872.5469 732.7531,872.2969 Q733.1438,872.1406 733.5656,871.7031 Q733.8313,871.4375 733.9719,871.3594 Q734.1281,871.2813 734.3313,871.2813 Q734.6594,871.2813 734.9094,871.5469 Q735.175,871.7969 735.175,872.1406 Q735.175,872.4844 734.8313,872.8906 Q734.3313,873.4688 733.5344,873.7969 Q732.4563,874.25 731.1594,874.25 Q729.6438,874.25 728.4406,873.625 Q727.4563,873.125 726.7688,872.0625 Q726.0813,870.9844 726.0813,869.7031 L726.0813,868.5469 Q726.0813,867.2188 726.6906,866.0781 Q727.3156,864.9219 728.4094,864.3125 Q729.5031,863.6875 730.7375,863.6875 Q731.4719,863.6875 732.1125,863.8594 Q732.7688,864.0156 733.3156,864.375 Z " fill="#000000"/><text fill="#000000" font-family="sans-serif" font-size="14" lengthAdjust="spacing" textLength="91" x="748.45" y="874.2285">CUserAddress</text><line style="stroke:#181818;stroke-width:0.5;" x1="699" x2="859" y1="884.5" y2="884.5"/><text fill="#000000" font-family="sans-serif" font-size="14" lengthAdjust="spacing" textLength="52" x="704" y="903.0332">String id</text><text fill="#000000" font-family="sans-serif" font-size="14" lengthAdjust="spacing" textLength="92" x="704" y="920.6426">String address</text><text fill="#000000" font-family="sans-serif" font-size="14" lengthAdjust="spacing" textLength="82" x="704" y="938.252">String district</text><text fill="#000000" font-family="sans-serif" font-size="14" lengthAdjust="spacing" textLength="71" x="704" y="955.8613">String ward</text><text fill="#000000" font-family="sans-serif" font-size="14" lengthAdjust="spacing" textLength="62" x="704" y="973.4707">String city</text><text fill="#000000" font-family="sans-serif" font-size="14" lengthAdjust="spacing" textLength="150" x="704" y="991.0801">boolean defaultAddress</text><text fill="#000000" font-family="sans-serif" font-size="14" lengthAdjust="spacing" textLength="71" x="704" y="1008.6895">CUser user</text><line style="stroke:#181818;stroke-width:0.5;" x1="699" x2="859" y1="1015.7656" y2="1015.7656"/></g><!--class CRefreshToken--><g id="elem_CRefreshToken"><rect fill="#F1F1F1" height="48" id="CRefreshToken" rx="2.5" ry="2.5" style="stroke:#181818;stroke-width:0.5;" width="132" x="895" y="914"/><ellipse cx="910" cy="930" fill="#ADD1B2" rx="11" ry="11" style="stroke:#181818;stroke-width:1.0;"/><path d="M912.7656,925.875 Q912.9219,925.6563 913.1094,925.5469 Q913.2969,925.4375 913.5156,925.4375 Q913.8906,925.4375 914.125,925.7031 Q914.3594,925.9531 914.3594,926.5625 L914.3594,928.0156 Q914.3594,928.625 914.125,928.8906 Q913.8906,929.1563 913.5156,929.1563 Q913.1719,929.1563 912.9688,928.9531 Q912.7656,928.7656 912.6563,928.25 Q912.6094,927.8906 912.4219,927.7031 Q912.0938,927.3281 911.4844,927.1094 Q910.875,926.8906 910.25,926.8906 Q909.4844,926.8906 908.8438,927.2188 Q908.2188,927.5469 907.7188,928.2969 Q907.2344,929.0469 907.2344,930.0781 L907.2344,931.1719 Q907.2344,932.4063 908.125,933.2344 Q909.0156,934.0469 910.6094,934.0469 Q911.5469,934.0469 912.2031,933.7969 Q912.5938,933.6406 913.0156,933.2031 Q913.2813,932.9375 913.4219,932.8594 Q913.5781,932.7813 913.7813,932.7813 Q914.1094,932.7813 914.3594,933.0469 Q914.625,933.2969 914.625,933.6406 Q914.625,933.9844 914.2813,934.3906 Q913.7813,934.9688 912.9844,935.2969 Q911.9063,935.75 910.6094,935.75 Q909.0938,935.75 907.8906,935.125 Q906.9063,934.625 906.2188,933.5625 Q905.5313,932.4844 905.5313,931.2031 L905.5313,930.0469 Q905.5313,928.7188 906.1406,927.5781 Q906.7656,926.4219 907.8594,925.8125 Q908.9531,925.1875 910.1875,925.1875 Q910.9219,925.1875 911.5625,925.3594 Q912.2188,925.5156 912.7656,925.875 Z " fill="#000000"/><text fill="#000000" font-family="sans-serif" font-size="14" lengthAdjust="spacing" textLength="100" x="924" y="935.7285">CRefreshToken</text><line style="stroke:#181818;stroke-width:0.5;" x1="896" x2="1026" y1="946" y2="946"/><line style="stroke:#181818;stroke-width:0.5;" x1="896" x2="1026" y1="954" y2="954"/></g><!--class CRole--><g id="elem_CRole"><rect codeLine="76" fill="#F1F1F1" height="100.8281" id="CRole" rx="2.5" ry="2.5" style="stroke:#181818;stroke-width:0.5;" width="127" x="1062.5" y="887.5"/><ellipse cx="1102.7" cy="903.5" fill="#ADD1B2" rx="11" ry="11" style="stroke:#181818;stroke-width:1.0;"/><path d="M1105.4656,899.375 Q1105.6219,899.1563 1105.8094,899.0469 Q1105.9969,898.9375 1106.2156,898.9375 Q1106.5906,898.9375 1106.825,899.2031 Q1107.0594,899.4531 1107.0594,900.0625 L1107.0594,901.5156 Q1107.0594,902.125 1106.825,902.3906 Q1106.5906,902.6563 1106.2156,902.6563 Q1105.8719,902.6563 1105.6688,902.4531 Q1105.4656,902.2656 1105.3563,901.75 Q1105.3094,901.3906 1105.1219,901.2031 Q1104.7938,900.8281 1104.1844,900.6094 Q1103.575,900.3906 1102.95,900.3906 Q1102.1844,900.3906 1101.5438,900.7188 Q1100.9188,901.0469 1100.4188,901.7969 Q1099.9344,902.5469 1099.9344,903.5781 L1099.9344,904.6719 Q1099.9344,905.9063 1100.825,906.7344 Q1101.7156,907.5469 1103.3094,907.5469 Q1104.2469,907.5469 1104.9031,907.2969 Q1105.2938,907.1406 1105.7156,906.7031 Q1105.9813,906.4375 1106.1219,906.3594 Q1106.2781,906.2813 1106.4813,906.2813 Q1106.8094,906.2813 1107.0594,906.5469 Q1107.325,906.7969 1107.325,907.1406 Q1107.325,907.4844 1106.9813,907.8906 Q1106.4813,908.4688 1105.6844,908.7969 Q1104.6063,909.25 1103.3094,909.25 Q1101.7938,909.25 1100.5906,908.625 Q1099.6063,908.125 1098.9188,907.0625 Q1098.2313,905.9844 1098.2313,904.7031 L1098.2313,903.5469 Q1098.2313,902.2188 1098.8406,901.0781 Q1099.4656,899.9219 1100.5594,899.3125 Q1101.6531,898.6875 1102.8875,898.6875 Q1103.6219,898.6875 1104.2625,898.8594 Q1104.9188,899.0156 1105.4656,899.375 Z " fill="#000000"/><text fill="#000000" font-family="sans-serif" font-size="14" lengthAdjust="spacing" textLength="39" x="1122.3" y="909.2285">CRole</text><line style="stroke:#181818;stroke-width:0.5;" x1="1063.5" x2="1188.5" y1="919.5" y2="919.5"/><text fill="#000000" font-family="sans-serif" font-size="14" lengthAdjust="spacing" textLength="72" x="1068.5" y="938.0332">String code</text><text fill="#000000" font-family="sans-serif" font-size="14" lengthAdjust="spacing" textLength="110" x="1068.5" y="955.6426">String description</text><text fill="#000000" font-family="sans-serif" font-size="14" lengthAdjust="spacing" textLength="115" x="1068.5" y="973.252">Set&lt;CUser&gt; users</text><line style="stroke:#181818;stroke-width:0.5;" x1="1063.5" x2="1188.5" y1="980.3281" y2="980.3281"/></g><!--class CCartItem--><g id="elem_CCartItem"><rect codeLine="99" fill="#F1F1F1" height="206.4844" id="CCartItem" rx="2.5" ry="2.5" style="stroke:#181818;stroke-width:0.5;" width="148" x="464" y="1128"/><ellipse cx="502.85" cy="1144" fill="#ADD1B2" rx="11" ry="11" style="stroke:#181818;stroke-width:1.0;"/><path d="M505.6156,1139.875 Q505.7719,1139.6563 505.9594,1139.5469 Q506.1469,1139.4375 506.3656,1139.4375 Q506.7406,1139.4375 506.975,1139.7031 Q507.2094,1139.9531 507.2094,1140.5625 L507.2094,1142.0156 Q507.2094,1142.625 506.975,1142.8906 Q506.7406,1143.1563 506.3656,1143.1563 Q506.0219,1143.1563 505.8188,1142.9531 Q505.6156,1142.7656 505.5063,1142.25 Q505.4594,1141.8906 505.2719,1141.7031 Q504.9438,1141.3281 504.3344,1141.1094 Q503.725,1140.8906 503.1,1140.8906 Q502.3344,1140.8906 501.6938,1141.2188 Q501.0688,1141.5469 500.5688,1142.2969 Q500.0844,1143.0469 500.0844,1144.0781 L500.0844,1145.1719 Q500.0844,1146.4063 500.975,1147.2344 Q501.8656,1148.0469 503.4594,1148.0469 Q504.3969,1148.0469 505.0531,1147.7969 Q505.4438,1147.6406 505.8656,1147.2031 Q506.1313,1146.9375 506.2719,1146.8594 Q506.4281,1146.7813 506.6313,1146.7813 Q506.9594,1146.7813 507.2094,1147.0469 Q507.475,1147.2969 507.475,1147.6406 Q507.475,1147.9844 507.1313,1148.3906 Q506.6313,1148.9688 505.8344,1149.2969 Q504.7563,1149.75 503.4594,1149.75 Q501.9438,1149.75 500.7406,1149.125 Q499.7563,1148.625 499.0688,1147.5625 Q498.3813,1146.4844 498.3813,1145.2031 L498.3813,1144.0469 Q498.3813,1142.7188 498.9906,1141.5781 Q499.6156,1140.4219 500.7094,1139.8125 Q501.8031,1139.1875 503.0375,1139.1875 Q503.7719,1139.1875 504.4125,1139.3594 Q505.0688,1139.5156 505.6156,1139.875 Z " fill="#000000"/><text fill="#000000" font-family="sans-serif" font-size="14" lengthAdjust="spacing" textLength="63" x="522.15" y="1149.7285">CCartItem</text><line style="stroke:#181818;stroke-width:0.5;" x1="465" x2="611" y1="1160" y2="1160"/><text fill="#000000" font-family="sans-serif" font-size="14" lengthAdjust="spacing" textLength="65" x="470" y="1178.5332">CCart cart</text><text fill="#000000" font-family="sans-serif" font-size="14" lengthAdjust="spacing" textLength="69" x="470" y="1196.1426">int quantity</text><text fill="#000000" font-family="sans-serif" font-size="14" lengthAdjust="spacing" textLength="72" x="470" y="1213.752">String color</text><text fill="#000000" font-family="sans-serif" font-size="14" lengthAdjust="spacing" textLength="65" x="470" y="1231.3613">String size</text><text fill="#000000" font-family="sans-serif" font-size="14" lengthAdjust="spacing" textLength="111" x="470" y="1248.9707">CProduct product</text><line style="stroke:#181818;stroke-width:0.5;" x1="465" x2="611" y1="1256.0469" y2="1256.0469"/><ellipse cx="475" cy="1270.3516" fill="#84BE84" rx="3" ry="3" style="stroke:#038048;stroke-width:1.0;"/><text fill="#000000" font-family="sans-serif" font-size="14" lengthAdjust="spacing" textLength="88" x="484" y="1274.5801">originalPrice()</text><ellipse cx="475" cy="1287.9609" fill="#84BE84" rx="3" ry="3" style="stroke:#038048;stroke-width:1.0;"/><text fill="#000000" font-family="sans-serif" font-size="14" lengthAdjust="spacing" textLength="68" x="484" y="1292.1895">finalPrice()</text><ellipse cx="475" cy="1305.5703" fill="#84BE84" rx="3" ry="3" style="stroke:#038048;stroke-width:1.0;"/><text fill="#000000" font-family="sans-serif" font-size="14" lengthAdjust="spacing" textLength="117" x="484" y="1309.7988">increaseQuantity()</text><ellipse cx="475" cy="1323.1797" fill="#84BE84" rx="3" ry="3" style="stroke:#038048;stroke-width:1.0;"/><text fill="#000000" font-family="sans-serif" font-size="14" lengthAdjust="spacing" textLength="122" x="484" y="1327.4082">decreaseQuantity()</text></g><!--class CProduct--><g id="elem_CProduct"><rect codeLine="114" fill="#F1F1F1" height="417.7969" id="CProduct" rx="2.5" ry="2.5" style="stroke:#181818;stroke-width:0.5;" width="218" x="429" y="1412"/><ellipse cx="504.25" cy="1428" fill="#ADD1B2" rx="11" ry="11" style="stroke:#181818;stroke-width:1.0;"/><path d="M507.0156,1423.875 Q507.1719,1423.6563 507.3594,1423.5469 Q507.5469,1423.4375 507.7656,1423.4375 Q508.1406,1423.4375 508.375,1423.7031 Q508.6094,1423.9531 508.6094,1424.5625 L508.6094,1426.0156 Q508.6094,1426.625 508.375,1426.8906 Q508.1406,1427.1563 507.7656,1427.1563 Q507.4219,1427.1563 507.2188,1426.9531 Q507.0156,1426.7656 506.9063,1426.25 Q506.8594,1425.8906 506.6719,1425.7031 Q506.3438,1425.3281 505.7344,1425.1094 Q505.125,1424.8906 504.5,1424.8906 Q503.7344,1424.8906 503.0938,1425.2188 Q502.4688,1425.5469 501.9688,1426.2969 Q501.4844,1427.0469 501.4844,1428.0781 L501.4844,1429.1719 Q501.4844,1430.4063 502.375,1431.2344 Q503.2656,1432.0469 504.8594,1432.0469 Q505.7969,1432.0469 506.4531,1431.7969 Q506.8438,1431.6406 507.2656,1431.2031 Q507.5313,1430.9375 507.6719,1430.8594 Q507.8281,1430.7813 508.0313,1430.7813 Q508.3594,1430.7813 508.6094,1431.0469 Q508.875,1431.2969 508.875,1431.6406 Q508.875,1431.9844 508.5313,1432.3906 Q508.0313,1432.9688 507.2344,1433.2969 Q506.1563,1433.75 504.8594,1433.75 Q503.3438,1433.75 502.1406,1433.125 Q501.1563,1432.625 500.4688,1431.5625 Q499.7813,1430.4844 499.7813,1429.2031 L499.7813,1428.0469 Q499.7813,1426.7188 500.3906,1425.5781 Q501.0156,1424.4219 502.1094,1423.8125 Q503.2031,1423.1875 504.4375,1423.1875 Q505.1719,1423.1875 505.8125,1423.3594 Q506.4688,1423.5156 507.0156,1423.875 Z " fill="#000000"/><text fill="#000000" font-family="sans-serif" font-size="14" lengthAdjust="spacing" textLength="59" x="524.75" y="1433.7285">CProduct</text><line style="stroke:#181818;stroke-width:0.5;" x1="430" x2="646" y1="1444" y2="1444"/><text fill="#000000" font-family="sans-serif" font-size="14" lengthAdjust="spacing" textLength="76" x="435" y="1462.5332">String name</text><text fill="#000000" font-family="sans-serif" font-size="14" lengthAdjust="spacing" textLength="105" x="435" y="1480.1426">BigDecimal price</text><text fill="#000000" font-family="sans-serif" font-size="14" lengthAdjust="spacing" textLength="69" x="435" y="1497.752">int quantity</text><text fill="#000000" font-family="sans-serif" font-size="14" lengthAdjust="spacing" textLength="45" x="435" y="1515.3613">int sold</text><text fill="#000000" font-family="sans-serif" font-size="14" lengthAdjust="spacing" textLength="110" x="435" y="1532.9707">String description</text><text fill="#000000" font-family="sans-serif" font-size="14" lengthAdjust="spacing" textLength="56" x="435" y="1550.5801">float rate</text><text fill="#000000" font-family="sans-serif" font-size="14" lengthAdjust="spacing" textLength="47" x="435" y="1568.1895">int likes</text><text fill="#000000" font-family="sans-serif" font-size="14" lengthAdjust="spacing" textLength="127" x="435" y="1585.7988">BigDecimal discount</text><text fill="#000000" font-family="sans-serif" font-size="14" lengthAdjust="spacing" textLength="183" x="435" y="1603.4082">Set&lt;CProductImage&gt; images</text><text fill="#000000" font-family="sans-serif" font-size="14" lengthAdjust="spacing" textLength="172" x="435" y="1621.0176">Set&lt;CProductColor&gt; colors</text><text fill="#000000" font-family="sans-serif" font-size="14" lengthAdjust="spacing" textLength="157" x="435" y="1638.627">Set&lt;CProductSize&gt; sizes</text><text fill="#000000" font-family="sans-serif" font-size="14" lengthAdjust="spacing" textLength="175" x="435" y="1656.2363">Set&lt;CCategory&gt; categories</text><line style="stroke:#181818;stroke-width:0.5;" x1="430" x2="646" y1="1663.3125" y2="1663.3125"/><ellipse cx="440" cy="1677.6172" fill="#84BE84" rx="3" ry="3" style="stroke:#038048;stroke-width:1.0;"/><text fill="#000000" font-family="sans-serif" font-size="14" lengthAdjust="spacing" textLength="145" x="449" y="1681.8457">addSize(CProductSize)</text><ellipse cx="440" cy="1695.2266" fill="#84BE84" rx="3" ry="3" style="stroke:#038048;stroke-width:1.0;"/><text fill="#000000" font-family="sans-serif" font-size="14" lengthAdjust="spacing" textLength="168" x="449" y="1699.4551">removeSize(CProductSize)</text><ellipse cx="440" cy="1712.8359" fill="#84BE84" rx="3" ry="3" style="stroke:#038048;stroke-width:1.0;"/><text fill="#000000" font-family="sans-serif" font-size="14" lengthAdjust="spacing" textLength="161" x="449" y="1717.0645">addColor(CProductColor)</text><ellipse cx="440" cy="1730.4453" fill="#84BE84" rx="3" ry="3" style="stroke:#038048;stroke-width:1.0;"/><text fill="#000000" font-family="sans-serif" font-size="14" lengthAdjust="spacing" textLength="184" x="449" y="1734.6738">removeColor(CProductColor)</text><ellipse cx="440" cy="1748.0547" fill="#84BE84" rx="3" ry="3" style="stroke:#038048;stroke-width:1.0;"/><text fill="#000000" font-family="sans-serif" font-size="14" lengthAdjust="spacing" textLength="169" x="449" y="1752.2832">addImage(CProductImage)</text><ellipse cx="440" cy="1765.6641" fill="#84BE84" rx="3" ry="3" style="stroke:#038048;stroke-width:1.0;"/><text fill="#000000" font-family="sans-serif" font-size="14" lengthAdjust="spacing" textLength="192" x="449" y="1769.8926">removeImage(CProductImage)</text><ellipse cx="440" cy="1783.2734" fill="#84BE84" rx="3" ry="3" style="stroke:#038048;stroke-width:1.0;"/><text fill="#000000" font-family="sans-serif" font-size="14" lengthAdjust="spacing" textLength="112" x="449" y="1787.502">priceDiscounted()</text><ellipse cx="440" cy="1800.8828" fill="#84BE84" rx="3" ry="3" style="stroke:#038048;stroke-width:1.0;"/><text fill="#000000" font-family="sans-serif" font-size="14" lengthAdjust="spacing" textLength="171" x="449" y="1805.1113">addCategories(CCategory)</text><ellipse cx="440" cy="1818.4922" fill="#84BE84" rx="3" ry="3" style="stroke:#038048;stroke-width:1.0;"/><text fill="#000000" font-family="sans-serif" font-size="14" lengthAdjust="spacing" textLength="183" x="449" y="1822.7207">removeCategory(CCategory)</text></g><!--class CProductImage--><g id="elem_CProductImage"><rect codeLine="142" fill="#F1F1F1" height="100.8281" id="CProductImage" rx="2.5" ry="2.5" style="stroke:#181818;stroke-width:0.5;" width="129" x="184.5" y="1952"/><ellipse cx="199.5" cy="1968" fill="#ADD1B2" rx="11" ry="11" style="stroke:#181818;stroke-width:1.0;"/><path d="M202.2656,1963.875 Q202.4219,1963.6563 202.6094,1963.5469 Q202.7969,1963.4375 203.0156,1963.4375 Q203.3906,1963.4375 203.625,1963.7031 Q203.8594,1963.9531 203.8594,1964.5625 L203.8594,1966.0156 Q203.8594,1966.625 203.625,1966.8906 Q203.3906,1967.1563 203.0156,1967.1563 Q202.6719,1967.1563 202.4688,1966.9531 Q202.2656,1966.7656 202.1563,1966.25 Q202.1094,1965.8906 201.9219,1965.7031 Q201.5938,1965.3281 200.9844,1965.1094 Q200.375,1964.8906 199.75,1964.8906 Q198.9844,1964.8906 198.3438,1965.2188 Q197.7188,1965.5469 197.2188,1966.2969 Q196.7344,1967.0469 196.7344,1968.0781 L196.7344,1969.1719 Q196.7344,1970.4063 197.625,1971.2344 Q198.5156,1972.0469 200.1094,1972.0469 Q201.0469,1972.0469 201.7031,1971.7969 Q202.0938,1971.6406 202.5156,1971.2031 Q202.7813,1970.9375 202.9219,1970.8594 Q203.0781,1970.7813 203.2813,1970.7813 Q203.6094,1970.7813 203.8594,1971.0469 Q204.125,1971.2969 204.125,1971.6406 Q204.125,1971.9844 203.7813,1972.3906 Q203.2813,1972.9688 202.4844,1973.2969 Q201.4063,1973.75 200.1094,1973.75 Q198.5938,1973.75 197.3906,1973.125 Q196.4063,1972.625 195.7188,1971.5625 Q195.0313,1970.4844 195.0313,1969.2031 L195.0313,1968.0469 Q195.0313,1966.7188 195.6406,1965.5781 Q196.2656,1964.4219 197.3594,1963.8125 Q198.4531,1963.1875 199.6875,1963.1875 Q200.4219,1963.1875 201.0625,1963.3594 Q201.7188,1963.5156 202.2656,1963.875 Z " fill="#000000"/><text fill="#000000" font-family="sans-serif" font-size="14" lengthAdjust="spacing" textLength="97" x="213.5" y="1973.7285">CProductImage</text><line style="stroke:#181818;stroke-width:0.5;" x1="185.5" x2="312.5" y1="1984" y2="1984"/><text fill="#000000" font-family="sans-serif" font-size="14" lengthAdjust="spacing" textLength="52" x="190.5" y="2002.5332">String id</text><text fill="#000000" font-family="sans-serif" font-size="14" lengthAdjust="spacing" textLength="57" x="190.5" y="2020.1426">String url</text><text fill="#000000" font-family="sans-serif" font-size="14" lengthAdjust="spacing" textLength="111" x="190.5" y="2037.752">CProduct product</text><line style="stroke:#181818;stroke-width:0.5;" x1="185.5" x2="312.5" y1="2044.8281" y2="2044.8281"/></g><!--class CProductColor--><g id="elem_CProductColor"><rect codeLine="149" fill="#F1F1F1" height="118.4375" id="CProductColor" rx="2.5" ry="2.5" style="stroke:#181818;stroke-width:0.5;" width="167" x="349.5" y="1943.5"/><ellipse cx="383.4" cy="1959.5" fill="#ADD1B2" rx="11" ry="11" style="stroke:#181818;stroke-width:1.0;"/><path d="M386.1656,1955.375 Q386.3219,1955.1563 386.5094,1955.0469 Q386.6969,1954.9375 386.9156,1954.9375 Q387.2906,1954.9375 387.525,1955.2031 Q387.7594,1955.4531 387.7594,1956.0625 L387.7594,1957.5156 Q387.7594,1958.125 387.525,1958.3906 Q387.2906,1958.6563 386.9156,1958.6563 Q386.5719,1958.6563 386.3688,1958.4531 Q386.1656,1958.2656 386.0563,1957.75 Q386.0094,1957.3906 385.8219,1957.2031 Q385.4938,1956.8281 384.8844,1956.6094 Q384.275,1956.3906 383.65,1956.3906 Q382.8844,1956.3906 382.2438,1956.7188 Q381.6188,1957.0469 381.1188,1957.7969 Q380.6344,1958.5469 380.6344,1959.5781 L380.6344,1960.6719 Q380.6344,1961.9063 381.525,1962.7344 Q382.4156,1963.5469 384.0094,1963.5469 Q384.9469,1963.5469 385.6031,1963.2969 Q385.9938,1963.1406 386.4156,1962.7031 Q386.6813,1962.4375 386.8219,1962.3594 Q386.9781,1962.2813 387.1813,1962.2813 Q387.5094,1962.2813 387.7594,1962.5469 Q388.025,1962.7969 388.025,1963.1406 Q388.025,1963.4844 387.6813,1963.8906 Q387.1813,1964.4688 386.3844,1964.7969 Q385.3063,1965.25 384.0094,1965.25 Q382.4938,1965.25 381.2906,1964.625 Q380.3063,1964.125 379.6188,1963.0625 Q378.9313,1961.9844 378.9313,1960.7031 L378.9313,1959.5469 Q378.9313,1958.2188 379.5406,1957.0781 Q380.1656,1955.9219 381.2594,1955.3125 Q382.3531,1954.6875 383.5875,1954.6875 Q384.3219,1954.6875 384.9625,1954.8594 Q385.6188,1955.0156 386.1656,1955.375 Z " fill="#000000"/><text fill="#000000" font-family="sans-serif" font-size="14" lengthAdjust="spacing" textLength="93" x="401.6" y="1965.2285">CProductColor</text><line style="stroke:#181818;stroke-width:0.5;" x1="350.5" x2="515.5" y1="1975.5" y2="1975.5"/><text fill="#000000" font-family="sans-serif" font-size="14" lengthAdjust="spacing" textLength="52" x="355.5" y="1994.0332">String id</text><text fill="#000000" font-family="sans-serif" font-size="14" lengthAdjust="spacing" textLength="76" x="355.5" y="2011.6426">String name</text><text fill="#000000" font-family="sans-serif" font-size="14" lengthAdjust="spacing" textLength="72" x="355.5" y="2029.252">String color</text><text fill="#000000" font-family="sans-serif" font-size="14" lengthAdjust="spacing" textLength="155" x="355.5" y="2046.8613">Set&lt;CProduct&gt; products</text><line style="stroke:#181818;stroke-width:0.5;" x1="350.5" x2="515.5" y1="2053.9375" y2="2053.9375"/></g><!--class CProductSize--><g id="elem_CProductSize"><rect codeLine="157" fill="#F1F1F1" height="100.8281" id="CProductSize" rx="2.5" ry="2.5" style="stroke:#181818;stroke-width:0.5;" width="167" x="552.5" y="1952"/><ellipse cx="590" cy="1968" fill="#ADD1B2" rx="11" ry="11" style="stroke:#181818;stroke-width:1.0;"/><path d="M592.7656,1963.875 Q592.9219,1963.6563 593.1094,1963.5469 Q593.2969,1963.4375 593.5156,1963.4375 Q593.8906,1963.4375 594.125,1963.7031 Q594.3594,1963.9531 594.3594,1964.5625 L594.3594,1966.0156 Q594.3594,1966.625 594.125,1966.8906 Q593.8906,1967.1563 593.5156,1967.1563 Q593.1719,1967.1563 592.9688,1966.9531 Q592.7656,1966.7656 592.6563,1966.25 Q592.6094,1965.8906 592.4219,1965.7031 Q592.0938,1965.3281 591.4844,1965.1094 Q590.875,1964.8906 590.25,1964.8906 Q589.4844,1964.8906 588.8438,1965.2188 Q588.2188,1965.5469 587.7188,1966.2969 Q587.2344,1967.0469 587.2344,1968.0781 L587.2344,1969.1719 Q587.2344,1970.4063 588.125,1971.2344 Q589.0156,1972.0469 590.6094,1972.0469 Q591.5469,1972.0469 592.2031,1971.7969 Q592.5938,1971.6406 593.0156,1971.2031 Q593.2813,1970.9375 593.4219,1970.8594 Q593.5781,1970.7813 593.7813,1970.7813 Q594.1094,1970.7813 594.3594,1971.0469 Q594.625,1971.2969 594.625,1971.6406 Q594.625,1971.9844 594.2813,1972.3906 Q593.7813,1972.9688 592.9844,1973.2969 Q591.9063,1973.75 590.6094,1973.75 Q589.0938,1973.75 587.8906,1973.125 Q586.9063,1972.625 586.2188,1971.5625 Q585.5313,1970.4844 585.5313,1969.2031 L585.5313,1968.0469 Q585.5313,1966.7188 586.1406,1965.5781 Q586.7656,1964.4219 587.8594,1963.8125 Q588.9531,1963.1875 590.1875,1963.1875 Q590.9219,1963.1875 591.5625,1963.3594 Q592.2188,1963.5156 592.7656,1963.875 Z " fill="#000000"/><text fill="#000000" font-family="sans-serif" font-size="14" lengthAdjust="spacing" textLength="85" x="609" y="1973.7285">CProductSize</text><line style="stroke:#181818;stroke-width:0.5;" x1="553.5" x2="718.5" y1="1984" y2="1984"/><text fill="#000000" font-family="sans-serif" font-size="14" lengthAdjust="spacing" textLength="52" x="558.5" y="2002.5332">String id</text><text fill="#000000" font-family="sans-serif" font-size="14" lengthAdjust="spacing" textLength="65" x="558.5" y="2020.1426">String size</text><text fill="#000000" font-family="sans-serif" font-size="14" lengthAdjust="spacing" textLength="155" x="558.5" y="2037.752">Set&lt;CProduct&gt; products</text><line style="stroke:#181818;stroke-width:0.5;" x1="553.5" x2="718.5" y1="2044.8281" y2="2044.8281"/></g><!--class CCategory--><g id="elem_CCategory"><rect codeLine="164" fill="#F1F1F1" height="188.875" id="CCategory" rx="2.5" ry="2.5" style="stroke:#181818;stroke-width:0.5;" width="191" x="754.5" y="1908"/><ellipse cx="811.75" cy="1924" fill="#ADD1B2" rx="11" ry="11" style="stroke:#181818;stroke-width:1.0;"/><path d="M814.5156,1919.875 Q814.6719,1919.6563 814.8594,1919.5469 Q815.0469,1919.4375 815.2656,1919.4375 Q815.6406,1919.4375 815.875,1919.7031 Q816.1094,1919.9531 816.1094,1920.5625 L816.1094,1922.0156 Q816.1094,1922.625 815.875,1922.8906 Q815.6406,1923.1563 815.2656,1923.1563 Q814.9219,1923.1563 814.7188,1922.9531 Q814.5156,1922.7656 814.4063,1922.25 Q814.3594,1921.8906 814.1719,1921.7031 Q813.8438,1921.3281 813.2344,1921.1094 Q812.625,1920.8906 812,1920.8906 Q811.2344,1920.8906 810.5938,1921.2188 Q809.9688,1921.5469 809.4688,1922.2969 Q808.9844,1923.0469 808.9844,1924.0781 L808.9844,1925.1719 Q808.9844,1926.4063 809.875,1927.2344 Q810.7656,1928.0469 812.3594,1928.0469 Q813.2969,1928.0469 813.9531,1927.7969 Q814.3438,1927.6406 814.7656,1927.2031 Q815.0313,1926.9375 815.1719,1926.8594 Q815.3281,1926.7813 815.5313,1926.7813 Q815.8594,1926.7813 816.1094,1927.0469 Q816.375,1927.2969 816.375,1927.6406 Q816.375,1927.9844 816.0313,1928.3906 Q815.5313,1928.9688 814.7344,1929.2969 Q813.6563,1929.75 812.3594,1929.75 Q810.8438,1929.75 809.6406,1929.125 Q808.6563,1928.625 807.9688,1927.5625 Q807.2813,1926.4844 807.2813,1925.2031 L807.2813,1924.0469 Q807.2813,1922.7188 807.8906,1921.5781 Q808.5156,1920.4219 809.6094,1919.8125 Q810.7031,1919.1875 811.9375,1919.1875 Q812.6719,1919.1875 813.3125,1919.3594 Q813.9688,1919.5156 814.5156,1919.875 Z " fill="#000000"/><text fill="#000000" font-family="sans-serif" font-size="14" lengthAdjust="spacing" textLength="68" x="832.25" y="1929.7285">CCategory</text><line style="stroke:#181818;stroke-width:0.5;" x1="755.5" x2="944.5" y1="1940" y2="1940"/><text fill="#000000" font-family="sans-serif" font-size="14" lengthAdjust="spacing" textLength="52" x="760.5" y="1958.5332">String id</text><text fill="#000000" font-family="sans-serif" font-size="14" lengthAdjust="spacing" textLength="76" x="760.5" y="1976.1426">String name</text><text fill="#000000" font-family="sans-serif" font-size="14" lengthAdjust="spacing" textLength="61" x="760.5" y="1993.752">String tag</text><text fill="#000000" font-family="sans-serif" font-size="14" lengthAdjust="spacing" textLength="110" x="760.5" y="2011.3613">String description</text><text fill="#000000" font-family="sans-serif" font-size="14" lengthAdjust="spacing" textLength="155" x="760.5" y="2028.9707">Set&lt;CProduct&gt; products</text><line style="stroke:#181818;stroke-width:0.5;" x1="755.5" x2="944.5" y1="2036.0469" y2="2036.0469"/><ellipse cx="765.5" cy="2050.3516" fill="#84BE84" rx="3" ry="3" style="stroke:#038048;stroke-width:1.0;"/><text fill="#000000" font-family="sans-serif" font-size="14" lengthAdjust="spacing" textLength="142" x="774.5" y="2054.5801">addProduct(CProduct)</text><ellipse cx="765.5" cy="2067.9609" fill="#84BE84" rx="3" ry="3" style="stroke:#038048;stroke-width:1.0;"/><text fill="#000000" font-family="sans-serif" font-size="14" lengthAdjust="spacing" textLength="165" x="774.5" y="2072.1895">removeProduct(CProduct)</text><ellipse cx="765.5" cy="2085.5703" fill="#84BE84" rx="3" ry="3" style="stroke:#038048;stroke-width:1.0;"/><text fill="#000000" font-family="sans-serif" font-size="14" lengthAdjust="spacing" textLength="41" x="774.5" y="2089.7988">clear()</text></g><!--class COrder--><g id="elem_COrder"><rect codeLine="177" fill="#F1F1F1" height="100.8281" id="COrder" rx="2.5" ry="2.5" style="stroke:#181818;stroke-width:0.5;" width="183" x="947.5" y="222"/><ellipse cx="1011.25" cy="238" fill="#ADD1B2" rx="11" ry="11" style="stroke:#181818;stroke-width:1.0;"/><path d="M1014.0156,233.875 Q1014.1719,233.6563 1014.3594,233.5469 Q1014.5469,233.4375 1014.7656,233.4375 Q1015.1406,233.4375 1015.375,233.7031 Q1015.6094,233.9531 1015.6094,234.5625 L1015.6094,236.0156 Q1015.6094,236.625 1015.375,236.8906 Q1015.1406,237.1563 1014.7656,237.1563 Q1014.4219,237.1563 1014.2188,236.9531 Q1014.0156,236.7656 1013.9063,236.25 Q1013.8594,235.8906 1013.6719,235.7031 Q1013.3438,235.3281 1012.7344,235.1094 Q1012.125,234.8906 1011.5,234.8906 Q1010.7344,234.8906 1010.0938,235.2188 Q1009.4688,235.5469 1008.9688,236.2969 Q1008.4844,237.0469 1008.4844,238.0781 L1008.4844,239.1719 Q1008.4844,240.4063 1009.375,241.2344 Q1010.2656,242.0469 1011.8594,242.0469 Q1012.7969,242.0469 1013.4531,241.7969 Q1013.8438,241.6406 1014.2656,241.2031 Q1014.5313,240.9375 1014.6719,240.8594 Q1014.8281,240.7813 1015.0313,240.7813 Q1015.3594,240.7813 1015.6094,241.0469 Q1015.875,241.2969 1015.875,241.6406 Q1015.875,241.9844 1015.5313,242.3906 Q1015.0313,242.9688 1014.2344,243.2969 Q1013.1563,243.75 1011.8594,243.75 Q1010.3438,243.75 1009.1406,243.125 Q1008.1563,242.625 1007.4688,241.5625 Q1006.7813,240.4844 1006.7813,239.2031 L1006.7813,238.0469 Q1006.7813,236.7188 1007.3906,235.5781 Q1008.0156,234.4219 1009.1094,233.8125 Q1010.2031,233.1875 1011.4375,233.1875 Q1012.1719,233.1875 1012.8125,233.3594 Q1013.4688,233.5156 1014.0156,233.875 Z " fill="#000000"/><text fill="#000000" font-family="sans-serif" font-size="14" lengthAdjust="spacing" textLength="47" x="1031.75" y="243.7285">COrder</text><line style="stroke:#181818;stroke-width:0.5;" x1="948.5" x2="1129.5" y1="254" y2="254"/><text fill="#000000" font-family="sans-serif" font-size="14" lengthAdjust="spacing" textLength="71" x="953.5" y="272.5332">CUser user</text><text fill="#000000" font-family="sans-serif" font-size="14" lengthAdjust="spacing" textLength="171" x="953.5" y="290.1426">COrderDetails orderDetails</text><text fill="#000000" font-family="sans-serif" font-size="14" lengthAdjust="spacing" textLength="129" x="953.5" y="307.752">COrderStatus status</text><line style="stroke:#181818;stroke-width:0.5;" x1="948.5" x2="1129.5" y1="314.8281" y2="314.8281"/></g><!--class COrderDetails--><g id="elem_COrderDetails"><rect codeLine="185" fill="#F1F1F1" height="294.5313" id="COrderDetails" rx="2.5" ry="2.5" style="stroke:#181818;stroke-width:0.5;" width="282" x="1063" y="427"/><ellipse cx="1154.75" cy="443" fill="#ADD1B2" rx="11" ry="11" style="stroke:#181818;stroke-width:1.0;"/><path d="M1157.5156,438.875 Q1157.6719,438.6563 1157.8594,438.5469 Q1158.0469,438.4375 1158.2656,438.4375 Q1158.6406,438.4375 1158.875,438.7031 Q1159.1094,438.9531 1159.1094,439.5625 L1159.1094,441.0156 Q1159.1094,441.625 1158.875,441.8906 Q1158.6406,442.1563 1158.2656,442.1563 Q1157.9219,442.1563 1157.7188,441.9531 Q1157.5156,441.7656 1157.4063,441.25 Q1157.3594,440.8906 1157.1719,440.7031 Q1156.8438,440.3281 1156.2344,440.1094 Q1155.625,439.8906 1155,439.8906 Q1154.2344,439.8906 1153.5938,440.2188 Q1152.9688,440.5469 1152.4688,441.2969 Q1151.9844,442.0469 1151.9844,443.0781 L1151.9844,444.1719 Q1151.9844,445.4063 1152.875,446.2344 Q1153.7656,447.0469 1155.3594,447.0469 Q1156.2969,447.0469 1156.9531,446.7969 Q1157.3438,446.6406 1157.7656,446.2031 Q1158.0313,445.9375 1158.1719,445.8594 Q1158.3281,445.7813 1158.5313,445.7813 Q1158.8594,445.7813 1159.1094,446.0469 Q1159.375,446.2969 1159.375,446.6406 Q1159.375,446.9844 1159.0313,447.3906 Q1158.5313,447.9688 1157.7344,448.2969 Q1156.6563,448.75 1155.3594,448.75 Q1153.8438,448.75 1152.6406,448.125 Q1151.6563,447.625 1150.9688,446.5625 Q1150.2813,445.4844 1150.2813,444.2031 L1150.2813,443.0469 Q1150.2813,441.7188 1150.8906,440.5781 Q1151.5156,439.4219 1152.6094,438.8125 Q1153.7031,438.1875 1154.9375,438.1875 Q1155.6719,438.1875 1156.3125,438.3594 Q1156.9688,438.5156 1157.5156,438.875 Z " fill="#000000"/><text fill="#000000" font-family="sans-serif" font-size="14" lengthAdjust="spacing" textLength="90" x="1175.25" y="448.7285">COrderDetails</text><line style="stroke:#181818;stroke-width:0.5;" x1="1064" x2="1344" y1="459" y2="459"/><text fill="#000000" font-family="sans-serif" font-size="14" lengthAdjust="spacing" textLength="85" x="1069" y="477.5332">COrder order</text><text fill="#000000" font-family="sans-serif" font-size="14" lengthAdjust="spacing" textLength="163" x="1069" y="495.1426">LocalDateTime orderDate</text><text fill="#000000" font-family="sans-serif" font-size="14" lengthAdjust="spacing" textLength="110" x="1069" y="512.752">int numOfProduct</text><text fill="#000000" font-family="sans-serif" font-size="14" lengthAdjust="spacing" textLength="251" x="1069" y="530.3613">COrderDetailsStatus orderDetailsStatus</text><text fill="#000000" font-family="sans-serif" font-size="14" lengthAdjust="spacing" textLength="92" x="1069" y="547.9707">String address</text><text fill="#000000" font-family="sans-serif" font-size="14" lengthAdjust="spacing" textLength="81" x="1069" y="565.5801">String phone</text><text fill="#000000" font-family="sans-serif" font-size="14" lengthAdjust="spacing" textLength="156" x="1069" y="583.1895">BigDecimal shippingCost</text><text fill="#000000" font-family="sans-serif" font-size="14" lengthAdjust="spacing" textLength="138" x="1069" y="600.7988">BigDecimal surcharge</text><text fill="#000000" font-family="sans-serif" font-size="14" lengthAdjust="spacing" textLength="101" x="1069" y="618.4082">BigDecimal total</text><text fill="#000000" font-family="sans-serif" font-size="14" lengthAdjust="spacing" textLength="132" x="1069" y="636.0176">BigDecimal finalTotal</text><text fill="#000000" font-family="sans-serif" font-size="14" lengthAdjust="spacing" textLength="203" x="1069" y="653.627">CPaymentStatus paymentStatus</text><text fill="#000000" font-family="sans-serif" font-size="14" lengthAdjust="spacing" textLength="217" x="1069" y="671.2363">CPaymentMethod paymentMethod</text><text fill="#000000" font-family="sans-serif" font-size="14" lengthAdjust="spacing" textLength="224" x="1069" y="688.8457">Set&lt;COrderDetailsItem&gt; orderItems</text><line style="stroke:#181818;stroke-width:0.5;" x1="1064" x2="1344" y1="695.9219" y2="695.9219"/><ellipse cx="1074" cy="710.2266" fill="#84BE84" rx="3" ry="3" style="stroke:#038048;stroke-width:1.0;"/><text fill="#000000" font-family="sans-serif" font-size="14" lengthAdjust="spacing" textLength="256" x="1083" y="714.4551">addOrderDetailsItem(COrderDetailsItem)</text></g><!--class COrderDetailsItem--><g id="elem_COrderDetailsItem"><rect codeLine="204" fill="#F1F1F1" height="171.2656" id="COrderDetailsItem" rx="2.5" ry="2.5" style="stroke:#181818;stroke-width:0.5;" width="183" x="1224.5" y="852.5"/><ellipse cx="1255.25" cy="868.5" fill="#ADD1B2" rx="11" ry="11" style="stroke:#181818;stroke-width:1.0;"/><path d="M1258.0156,864.375 Q1258.1719,864.1563 1258.3594,864.0469 Q1258.5469,863.9375 1258.7656,863.9375 Q1259.1406,863.9375 1259.375,864.2031 Q1259.6094,864.4531 1259.6094,865.0625 L1259.6094,866.5156 Q1259.6094,867.125 1259.375,867.3906 Q1259.1406,867.6563 1258.7656,867.6563 Q1258.4219,867.6563 1258.2188,867.4531 Q1258.0156,867.2656 1257.9063,866.75 Q1257.8594,866.3906 1257.6719,866.2031 Q1257.3438,865.8281 1256.7344,865.6094 Q1256.125,865.3906 1255.5,865.3906 Q1254.7344,865.3906 1254.0938,865.7188 Q1253.4688,866.0469 1252.9688,866.7969 Q1252.4844,867.5469 1252.4844,868.5781 L1252.4844,869.6719 Q1252.4844,870.9063 1253.375,871.7344 Q1254.2656,872.5469 1255.8594,872.5469 Q1256.7969,872.5469 1257.4531,872.2969 Q1257.8438,872.1406 1258.2656,871.7031 Q1258.5313,871.4375 1258.6719,871.3594 Q1258.8281,871.2813 1259.0313,871.2813 Q1259.3594,871.2813 1259.6094,871.5469 Q1259.875,871.7969 1259.875,872.1406 Q1259.875,872.4844 1259.5313,872.8906 Q1259.0313,873.4688 1258.2344,873.7969 Q1257.1563,874.25 1255.8594,874.25 Q1254.3438,874.25 1253.1406,873.625 Q1252.1563,873.125 1251.4688,872.0625 Q1250.7813,870.9844 1250.7813,869.7031 L1250.7813,868.5469 Q1250.7813,867.2188 1251.3906,866.0781 Q1252.0156,864.9219 1253.1094,864.3125 Q1254.2031,863.6875 1255.4375,863.6875 Q1256.1719,863.6875 1256.8125,863.8594 Q1257.4688,864.0156 1258.0156,864.375 Z " fill="#000000"/><text fill="#000000" font-family="sans-serif" font-size="14" lengthAdjust="spacing" textLength="116" x="1272.75" y="874.2285">COrderDetailsItem</text><line style="stroke:#181818;stroke-width:0.5;" x1="1225.5" x2="1406.5" y1="884.5" y2="884.5"/><text fill="#000000" font-family="sans-serif" font-size="14" lengthAdjust="spacing" textLength="52" x="1230.5" y="903.0332">String id</text><text fill="#000000" font-family="sans-serif" font-size="14" lengthAdjust="spacing" textLength="111" x="1230.5" y="920.6426">CProduct product</text><text fill="#000000" font-family="sans-serif" font-size="14" lengthAdjust="spacing" textLength="69" x="1230.5" y="938.252">int quantity</text><text fill="#000000" font-family="sans-serif" font-size="14" lengthAdjust="spacing" textLength="72" x="1230.5" y="955.8613">String color</text><text fill="#000000" font-family="sans-serif" font-size="14" lengthAdjust="spacing" textLength="65" x="1230.5" y="973.4707">String size</text><text fill="#000000" font-family="sans-serif" font-size="14" lengthAdjust="spacing" textLength="101" x="1230.5" y="991.0801">BigDecimal total</text><text fill="#000000" font-family="sans-serif" font-size="14" lengthAdjust="spacing" textLength="171" x="1230.5" y="1008.6895">COrderDetails orderDetails</text><line style="stroke:#181818;stroke-width:0.5;" x1="1225.5" x2="1406.5" y1="1015.7656" y2="1015.7656"/></g><!--link CUser to CCart--><g id="link_CUser_CCart"><path codeLine="60" d="M765.43,641.67 C711.36,676.13 650.94,722.69 610,778 C599.4,792.32 590.73,808.85 583.67,825.71 " fill="none" id="CUser-CCart" style="stroke:#181818;stroke-width:1.0;"/><text fill="#000000" font-family="sans-serif" font-size="13" lengthAdjust="spacing" textLength="22" x="611" y="792.4951">cart</text><text fill="#000000" font-family="sans-serif" font-size="13" lengthAdjust="spacing" textLength="7" x="578.3611" y="815.1318">1</text></g><!--link CCart to CUser--><g id="link_CCart_CUser"><path codeLine="97" d="M657.38,825.85 C691.52,788.79 725.8449,751.5331 761.3549,712.9831 " fill="none" id="CCart-to-CUser" style="stroke:#181818;stroke-width:1.0;"/><polygon fill="#181818" points="765.42,708.57,756.3804,712.4796,762.0324,712.2476,762.2645,717.8997,765.42,708.57" style="stroke:#181818;stroke-width:1.0;"/><text fill="#000000" font-family="sans-serif" font-size="13" lengthAdjust="spacing" textLength="25" x="693" y="792.4951">user</text></g><!--reverse link CUser to CUserAddress--><g id="link_CUser_CUserAddress"><path codeLine="61" d="M766.8753,759.3443 C762.8653,769.1943 763.87,768.03 761,778 C754.2,801.63 754.26,827.92 757.24,852.21 " fill="none" id="CUser-backto-CUserAddress" style="stroke:#181818;stroke-width:1.0;"/><polygon fill="none" points="771.4,748.23,765.4329,752.2789,766.8753,759.3443,772.8424,755.2954,771.4,748.23" style="stroke:#181818;stroke-width:1.0;"/><text fill="#000000" font-family="sans-serif" font-size="13" lengthAdjust="spacing" textLength="73" x="762" y="792.4951">userAddress</text><text fill="#000000" font-family="sans-serif" font-size="13" lengthAdjust="spacing" textLength="7" x="758.958" y="769.9596">1</text><text fill="#000000" font-family="sans-serif" font-size="13" lengthAdjust="spacing" textLength="5" x="750.1552" y="841.6487">*</text></g><!--link CUserAddress to CUser--><g id="link_CUserAddress_CUser"><path codeLine="74" d="M818.81,852.27 C826.51,833.96 834.04,814.53 840,796 C844.95,780.62 848.0369,770.2661 852.2769,753.9961 " fill="none" id="CUserAddress-to-CUser" style="stroke:#181818;stroke-width:1.0;"/><polygon fill="#181818" points="853.79,748.19,847.6497,755.8904,852.5291,753.0284,855.3911,757.9078,853.79,748.19" style="stroke:#181818;stroke-width:1.0;"/><text fill="#000000" font-family="sans-serif" font-size="13" lengthAdjust="spacing" textLength="25" x="847" y="792.4951">user</text></g><!--reverse link CUser to CRefreshToken--><g id="link_CUser_CRefreshToken"><path codeLine="62" d="M925.2149,759.8026 C938.3849,825.0326 949.47,879.93 956.34,913.94 " fill="none" id="CUser-backto-CRefreshToken" style="stroke:#181818;stroke-width:1.0;"/><polygon fill="none" points="922.84,748.04,920.1066,754.713,925.2149,759.8026,927.9483,753.1297,922.84,748.04" style="stroke:#181818;stroke-width:1.0;"/><text fill="#000000" font-family="sans-serif" font-size="13" lengthAdjust="spacing" textLength="81" x="933" y="792.4951">refreshTokens</text><text fill="#000000" font-family="sans-serif" font-size="13" lengthAdjust="spacing" textLength="7" x="917.2601" y="769.761">1</text><text fill="#000000" font-family="sans-serif" font-size="13" lengthAdjust="spacing" textLength="5" x="949.5053" y="903.2648">*</text></g><!--reverse link CUser to CRole--><g id="link_CUser_CRole"><path codeLine="63" d="M1009.8453,758.0219 C1016.5453,768.1619 1016.56,768.2 1023,778 C1047.02,814.56 1073.89,856.04 1094.15,887.47 " fill="none" id="CUser-backto-CRole" style="stroke:#181818;stroke-width:1.0;"/><polygon fill="none" points="1003.23,748.01,1003.2004,755.221,1009.8453,758.0219,1009.875,750.8108,1003.23,748.01" style="stroke:#181818;stroke-width:1.0;"/><text fill="#000000" font-family="sans-serif" font-size="13" lengthAdjust="spacing" textLength="28" x="1036" y="792.4951">roles</text><text fill="#000000" font-family="sans-serif" font-size="13" lengthAdjust="spacing" textLength="5" x="1003.3381" y="769.7296">*</text><text fill="#000000" font-family="sans-serif" font-size="13" lengthAdjust="spacing" textLength="5" x="1084.3195" y="876.7711">*</text></g><!--reverse link CRole to CUser--><g id="link_CRole_CUser"><path codeLine="81" d="M1112.32,875.7485 C1103.93,843.1385 1093.22,812.02 1073,778 C1063.68,762.32 1057.36,761.41 1045,748 C1033.89,735.94 1022.36,723.38 1010.83,710.78 " fill="none" id="CRole-backto-CUser" style="stroke:#181818;stroke-width:1.0;"/><polygon fill="none" points="1115.31,887.37,1117.6888,880.5626,1112.32,875.7485,1109.9411,882.5559,1115.31,887.37" style="stroke:#181818;stroke-width:1.0;"/><text fill="#000000" font-family="sans-serif" font-size="13" lengthAdjust="spacing" textLength="32" x="1083" y="792.4951">users</text><text fill="#000000" font-family="sans-serif" font-size="13" lengthAdjust="spacing" textLength="5" x="1108.4552" y="876.6571">*</text><text fill="#000000" font-family="sans-serif" font-size="13" lengthAdjust="spacing" textLength="5" x="1018.4673" y="716.0919">*</text></g><!--reverse link CCart to CCartItem--><g id="link_CCart_CCartItem"><path codeLine="96" d="M509.5053,1061.6867 C506.8453,1071.6867 507.66,1070.16 506,1080 C503.38,1095.49 503.68,1111.81 505.67,1127.75 " fill="none" id="CCart-backto-CCartItem" style="stroke:#181818;stroke-width:1.0;"/><polygon fill="none" points="512.59,1050.09,507.1821,1054.8601,509.5053,1061.6867,514.9132,1056.9166,512.59,1050.09" style="stroke:#181818;stroke-width:1.0;"/><text fill="#000000" font-family="sans-serif" font-size="13" lengthAdjust="spacing" textLength="32" x="507" y="1094.4951">items</text><text fill="#000000" font-family="sans-serif" font-size="13" lengthAdjust="spacing" textLength="7" x="502.5054" y="1071.6623">1</text><text fill="#000000" font-family="sans-serif" font-size="13" lengthAdjust="spacing" textLength="5" x="498.1122" y="1117.0703">*</text></g><!--link CCartItem to CCart--><g id="link_CCartItem_CCart"><path codeLine="110" d="M543.97,1127.88 C545.43,1102.77 546.6601,1081.7598 548.1501,1056.2498 " fill="none" id="CCartItem-to-CCart" style="stroke:#181818;stroke-width:1.0;"/><polygon fill="#181818" points="548.5,1050.26,543.982,1059.0115,548.2085,1055.2515,551.9684,1059.4779,548.5,1050.26" style="stroke:#181818;stroke-width:1.0;"/><text fill="#000000" font-family="sans-serif" font-size="13" lengthAdjust="spacing" textLength="22" x="548" y="1094.4951">cart</text></g><!--link CCartItem to CProduct--><g id="link_CCartItem_CProduct"><path codeLine="111" d="M538,1334.2 C538,1358.33 538,1378.93 538,1405.9 " fill="none" id="CCartItem-to-CProduct" style="stroke:#181818;stroke-width:1.0;"/><polygon fill="#181818" points="538,1411.9,542,1402.9,538,1406.9,534,1402.9,538,1411.9" style="stroke:#181818;stroke-width:1.0;"/><text fill="#000000" font-family="sans-serif" font-size="13" lengthAdjust="spacing" textLength="43" x="539" y="1378.4951">product</text></g><!--reverse link BaseEntity to CProduct--><g id="link_BaseEntity_CProduct"><path d="M921.6048,106.8542 C740.5548,141.7242 394,215.44 394,271.5 C394,271.5 394,271.5 394,1232 C394,1292.44 409.55,1355.06 430.43,1411.9 " fill="none" id="BaseEntity-backto-CProduct" style="stroke:#181818;stroke-width:1.0;"/><polygon fill="none" points="939.28,103.45,920.4701,100.9625,922.7396,112.7459,939.28,103.45" style="stroke:#181818;stroke-width:1.0;"/></g><!--reverse link CProduct to CProductImage--><g id="link_CProduct_CProductImage"><path codeLine="137" d="M418.3678,1683.5134 C351.2878,1724.0234 281.39,1779.7 243,1860 C229.48,1888.28 230.91,1923.49 235.76,1951.71 " fill="none" id="CProduct-backto-CProductImage" style="stroke:#181818;stroke-width:1.0;"/><polygon fill="none" points="428.64,1677.31,421.4361,1676.9877,418.3678,1683.5134,425.5717,1683.8358,428.64,1677.31" style="stroke:#181818;stroke-width:1.0;"/><text fill="#000000" font-family="sans-serif" font-size="13" lengthAdjust="spacing" textLength="42" x="244" y="1874.4951">images</text><text fill="#000000" font-family="sans-serif" font-size="13" lengthAdjust="spacing" textLength="7" x="414.0572" y="1678.0696">1</text><text fill="#000000" font-family="sans-serif" font-size="13" lengthAdjust="spacing" textLength="5" x="228.5466" y="1940.9746">*</text></g><!--link CProductImage to CProduct--><g id="link_CProductImage_CProduct"><path codeLine="147" d="M286.74,1951.95 C322.79,1904.61 375.2547,1835.7033 425.3147,1769.9733 " fill="none" id="CProductImage-to-CProduct" style="stroke:#181818;stroke-width:1.0;"/><polygon fill="#181818" points="428.95,1765.2,420.3148,1769.9364,425.9205,1769.1777,426.6792,1774.7835,428.95,1765.2" style="stroke:#181818;stroke-width:1.0;"/><text fill="#000000" font-family="sans-serif" font-size="13" lengthAdjust="spacing" textLength="43" x="352" y="1874.4951">product</text></g><!--reverse link CProduct to CProductColor--><g id="link_CProduct_CProductColor"><path codeLine="138" d="M424.5337,1819.1378 C417.7337,1836.3178 416.31,1842.64 412,1860 C405.3,1887 408.48,1917.45 414.18,1943.18 " fill="none" id="CProduct-backto-CProductColor" style="stroke:#181818;stroke-width:1.0;"/><polygon fill="none" points="428.95,1807.98,423.0226,1812.0868,424.5337,1819.1378,430.4611,1815.031,428.95,1807.98" style="stroke:#181818;stroke-width:1.0;"/><text fill="#000000" font-family="sans-serif" font-size="13" lengthAdjust="spacing" textLength="35" x="413" y="1874.4951">colors</text><text fill="#000000" font-family="sans-serif" font-size="13" lengthAdjust="spacing" textLength="5" x="416.1066" y="1818.0791">*</text><text fill="#000000" font-family="sans-serif" font-size="13" lengthAdjust="spacing" textLength="5" x="406.5816" y="1932.4653">*</text></g><!--reverse link CProductColor to CProduct--><g id="link_CProductColor_CProduct"><path codeLine="155" d="M452.3223,1931.6652 C460.9423,1900.5352 468.92,1871.68 480.43,1830.07 " fill="none" id="CProductColor-backto-CProduct" style="stroke:#181818;stroke-width:1.0;"/><polygon fill="none" points="449.12,1943.23,454.5761,1938.515,452.3223,1931.6652,446.8662,1936.3801,449.12,1943.23" style="stroke:#181818;stroke-width:1.0;"/><text fill="#000000" font-family="sans-serif" font-size="13" lengthAdjust="spacing" textLength="50" x="471" y="1874.4951">products</text><text fill="#000000" font-family="sans-serif" font-size="13" lengthAdjust="spacing" textLength="5" x="445.7799" y="1932.5213">*</text><text fill="#000000" font-family="sans-serif" font-size="13" lengthAdjust="spacing" textLength="5" x="473.2712" y="1851.376">*</text></g><!--reverse link CProduct to CProductSize--><g id="link_CProduct_CProductSize"><path codeLine="139" d="M571.0973,1841.8529 C574.8573,1858.1529 576.35,1862.57 581,1878 C588.55,1903.06 599.96,1929.72 610.43,1951.83 " fill="none" id="CProduct-backto-CProductSize" style="stroke:#181818;stroke-width:1.0;"/><polygon fill="none" points="568.4,1830.16,565.851,1836.9056,571.0973,1841.8529,573.6463,1835.1074,568.4,1830.16" style="stroke:#181818;stroke-width:1.0;"/><text fill="#000000" font-family="sans-serif" font-size="13" lengthAdjust="spacing" textLength="31" x="582" y="1874.4951">sizes</text><text fill="#000000" font-family="sans-serif" font-size="13" lengthAdjust="spacing" textLength="5" x="564.4027" y="1851.4693">*</text><text fill="#000000" font-family="sans-serif" font-size="13" lengthAdjust="spacing" textLength="5" x="601.4827" y="1941.1115">*</text></g><!--reverse link CProductSize to CProduct--><g id="link_CProductSize_CProduct"><path codeLine="162" d="M630.9195,1940.0302 C628.1695,1912.6802 624.92,1890.17 618,1860 C615.76,1850.23 613.28,1840.29 610.61,1830.3 " fill="none" id="CProductSize-backto-CProduct" style="stroke:#181818;stroke-width:1.0;"/><polygon fill="none" points="632.12,1951.97,635.4997,1945.5999,630.9195,1940.0302,627.5398,1946.4003,632.12,1951.97" style="stroke:#181818;stroke-width:1.0;"/><text fill="#000000" font-family="sans-serif" font-size="13" lengthAdjust="spacing" textLength="50" x="623" y="1874.4951">products</text><text fill="#000000" font-family="sans-serif" font-size="13" lengthAdjust="spacing" textLength="5" x="626.2228" y="1941.2711">*</text><text fill="#000000" font-family="sans-serif" font-size="13" lengthAdjust="spacing" textLength="5" x="608.1296" y="1851.6143">*</text></g><!--reverse link CProduct to CCategory--><g id="link_CProduct_CCategory"><path codeLine="140" d="M654.6953,1766.5348 C686.4353,1805.6148 713.7,1838.95 746,1878 C754.04,1887.72 762.47,1897.84 770.9,1907.91 " fill="none" id="CProduct-backto-CCategory" style="stroke:#181818;stroke-width:1.0;"/><polygon fill="none" points="647.13,1757.22,647.8077,1764.3992,654.6953,1766.5348,654.0176,1759.3556,647.13,1757.22" style="stroke:#181818;stroke-width:1.0;"/><text fill="#000000" font-family="sans-serif" font-size="13" lengthAdjust="spacing" textLength="60" x="747" y="1874.4951">categories</text><text fill="#000000" font-family="sans-serif" font-size="13" lengthAdjust="spacing" textLength="5" x="654.979" y="1763.7501">*</text><text fill="#000000" font-family="sans-serif" font-size="13" lengthAdjust="spacing" textLength="5" x="759.3975" y="1897.249">*</text></g><!--reverse link CCategory to CProduct--><g id="link_CCategory_CProduct"><path codeLine="174" d="M829.589,1896.1925 C824.319,1879.5925 821.04,1874.45 812,1860 C770.23,1793.23 703.93,1734.92 647,1692.73 " fill="none" id="CCategory-backto-CProduct" style="stroke:#181818;stroke-width:1.0;"/><polygon fill="none" points="833.22,1907.63,835.217,1900.7009,829.589,1896.1925,827.592,1903.1216,833.22,1907.63" style="stroke:#181818;stroke-width:1.0;"/><text fill="#000000" font-family="sans-serif" font-size="13" lengthAdjust="spacing" textLength="50" x="823" y="1874.4951">products</text><text fill="#000000" font-family="sans-serif" font-size="13" lengthAdjust="spacing" textLength="5" x="826.7439" y="1897.2674">*</text><text fill="#000000" font-family="sans-serif" font-size="13" lengthAdjust="spacing" textLength="5" x="654.8398" y="1694.7256">*</text></g><!--reverse link BaseEntity to COrder--><g id="link_BaseEntity_COrder"><path d="M1039,179.13 C1039,199.57 1039,203.16 1039,221.76 " fill="none" id="BaseEntity-backto-COrder" style="stroke:#181818;stroke-width:1.0;"/><polygon fill="none" points="1039,161.13,1033,179.13,1045,179.13,1039,161.13" style="stroke:#181818;stroke-width:1.0;"/></g><!--link COrder to CUser--><g id="link_COrder_CUser"><path codeLine="182" d="M990.46,323.07 C982.64,332.55 975.11,342.73 969,353 C960.03,368.07 954.2669,378.8351 946.7569,395.4051 " fill="none" id="COrder-to-CUser" style="stroke:#181818;stroke-width:1.0;"/><polygon fill="#181818" points="944.28,400.87,951.6385,394.3239,946.344,396.3159,944.352,391.0214,944.28,400.87" style="stroke:#181818;stroke-width:1.0;"/><text fill="#000000" font-family="sans-serif" font-size="13" lengthAdjust="spacing" textLength="25" x="970" y="367.4951">user</text></g><!--link COrder to COrderDetails--><g id="link_COrder_COrderDetails"><path codeLine="183" d="M1030.43,323.23 C1029.57,338.9 1030.6,356.03 1036,371 C1042.98,390.34 1049.4848,404.0579 1060.7648,421.9079 " fill="none" id="COrder-to-COrderDetails" style="stroke:#181818;stroke-width:1.0;"/><polygon fill="#181818" points="1063.97,426.98,1062.5436,417.235,1061.299,422.7532,1055.7807,421.5086,1063.97,426.98" style="stroke:#181818;stroke-width:1.0;"/><text fill="#000000" font-family="sans-serif" font-size="13" lengthAdjust="spacing" textLength="69" x="1037" y="367.4951">orderDetails</text></g><!--link COrderDetails to COrder--><g id="link_COrderDetails_COrder"><path codeLine="201" d="M1150.32,426.75 C1138.76,401.39 1125.57,375.86 1111,353 C1104.49,342.79 1100.5444,337.2144 1092.4644,327.7444 " fill="none" id="COrderDetails-to-COrder" style="stroke:#181818;stroke-width:1.0;"/><polygon fill="#181818" points="1088.57,323.18,1091.3687,332.6228,1091.8153,326.9836,1097.4545,327.4303,1088.57,323.18" style="stroke:#181818;stroke-width:1.0;"/><text fill="#000000" font-family="sans-serif" font-size="13" lengthAdjust="spacing" textLength="29" x="1123" y="367.4951">order</text></g><!--reverse link BaseEntity to COrderDetails--><g id="link_BaseEntity_COrderDetails"><path d="M1121.7386,175.5174 C1136.0686,194.2174 1138.62,200.72 1148,222 C1176.16,285.9 1190.37,361.87 1197.46,426.81 " fill="none" id="BaseEntity-backto-COrderDetails" style="stroke:#181818;stroke-width:1.0;"/><polygon fill="none" points="1110.79,161.23,1116.9761,179.1669,1126.501,171.8679,1110.79,161.23" style="stroke:#181818;stroke-width:1.0;"/></g><!--reverse link COrderDetails to COrderDetailsItem--><g id="link_COrderDetails_COrderDetailsItem"><path codeLine="202" d="M1196.3863,734.1694 C1198.4563,759.2694 1201.89,772.77 1210,796 C1216.86,815.66 1227.56,834.83 1239.57,852.37 " fill="none" id="COrderDetails-backto-COrderDetailsItem" style="stroke:#181818;stroke-width:1.0;"/><polygon fill="none" points="1195.4,722.21,1191.9067,728.5185,1196.3863,734.1694,1199.8796,727.8609,1195.4,722.21" style="stroke:#181818;stroke-width:1.0;"/><text fill="#000000" font-family="sans-serif" font-size="13" lengthAdjust="spacing" textLength="61" x="1211" y="792.4951">orderItems</text><text fill="#000000" font-family="sans-serif" font-size="13" lengthAdjust="spacing" textLength="7" x="1187.8139" y="743.2672">1</text><text fill="#000000" font-family="sans-serif" font-size="13" lengthAdjust="spacing" textLength="5" x="1227.5403" y="841.53">*</text></g><!--link COrderDetailsItem to COrderDetails--><g id="link_COrderDetailsItem_COrderDetails"><path codeLine="214" d="M1297,852.38 C1291.1,828.21 1284.23,801.94 1277,778 C1271.52,759.84 1267.2811,746.6073 1260.9011,727.9473 " fill="none" id="COrderDetailsItem-to-COrderDetails" style="stroke:#181818;stroke-width:1.0;"/><polygon fill="#181818" points="1258.96,722.27,1258.0868,732.0801,1260.5776,727.0011,1265.6566,729.4919,1258.96,722.27" style="stroke:#181818;stroke-width:1.0;"/><text fill="#000000" font-family="sans-serif" font-size="13" lengthAdjust="spacing" textLength="69" x="1283" y="792.4951">orderDetails</text></g><!--link COrderDetailsItem to CProduct--><g id="link_COrderDetailsItem_CProduct"><path codeLine="213" d="M1234.34,1023.73 C1225.23,1032.72 1215.99,1041.62 1207,1050 C1016.1,1227.87 786.3824,1418.6512 651.8024,1528.2512 " fill="none" id="COrderDetailsItem-to-CProduct" style="stroke:#181818;stroke-width:1.0;"/><polygon fill="#181818" points="647.15,1532.04,656.6545,1529.4583,651.027,1528.8826,651.6027,1523.2552,647.15,1532.04" style="stroke:#181818;stroke-width:1.0;"/><text fill="#000000" font-family="sans-serif" font-size="13" lengthAdjust="spacing" textLength="43" x="1120" y="1236.4951">product</text></g><!--SRC=[bLTBZzis4Bxlhn3s4cU3FVIwQ0t8ab08jMLNbbFuP30YRHEHHLUaDzq6-U_bKnhguMryaCMPuJo_6L8VWj_aBqYotMghNnz8VRi4EqwQhK3YneFl3u7yXL6HVaxqQv6iDkiyBFQ7nN8T_P74chf9ybMO9LdHKdyOLT6wmNrbVuLfaMQ_surPxDwZC8kIfNxTxg8esMvzBJ4HY5RSKvQjYqEUXF7UQCkJJPXBVOTr7YUvfqgznybIng44MiqRz7OXjV2KRiBKXBNBz6jFTaN4cU5MTdzOPyiqIy3oO0tjMzhdD3p8_qsubDeUFfYyBy9j8fDVfCNUPB-i4EV10d6Ir8AADsjZAnfQdmAAzOhM8dWb3QUiXjoo8KWGl7ZJn2KhKHLBGa4lnF92CSAI5iMAONga15i1gn1ofDRExTqsoODulGhJ3BeTATWuZuduDSfPHUP18vySwhr9iHfT2AHTfO9lhC6GXYc_LkWjwuaUQSD5dwXyxTF8HQ854j0h4gZnp9vPRVO0o7FzPn0PeKO4fNo0gCYn8VnSiA-abj615U-4bBeGOydYSnsmNMY9JmXZkvv1oO-6ouc8oH7TAd57IAfGwPtf95jQGoxibK3oZmTJbEVduF6NHnlEYmd8S1IPAVRJOm3DI2dezeWmp8EKzXDXvP-WlFH8oMauGCWuYsDOTvK3sUlG8LzA3x7Va8-WKhQGNdzXqYgg0-pbrPHOUwfYTTbo_Zm_potNvA9rMaVYULiox44F4rusz2hQ5dMOC63WofJMucK8sE9jiqLXNemrcoxbMCf0G6vQoE6rFcuQXcysNmjwYab9BwWA11EewfnKQbD1BlE0ogV5wvSRhN2X1CCQPq3Ph8EiPeFrc9WiezC_Qorvu1rZorpfO3tqERRCbt7Ko4pMh9N_FjROAab_tv2UkNvTA-OD34x_DOMER6Z15QJr4sleYTQesaXa4XVrSK2XjHh8dFnfJJew9WEw3LwxheFpMjXdEPTUMgSSY3RvEjv5epXocyW_WjHu-l1f9pR0pbK5DPv0HU2imlUwubWn9896daJjbef-jOS5C2DRlMIt6inWwtHwGITvmb3rnmVSI1LlRceuv6vb9UUwdXoYNv0JQzxaBlD6IJUorOuPtEuXTughCAyyc7bk-Q2VvClDEiQP5x6tUPglgnFRt17iDQ4BRjQ6t6j3GuHiYKI75QyJeMNLZQOOdUpJK5Q7g41iIdDNLgLIYff2ZKiw7tLRj6Nh0TpuT-UCkJNLU6TtWHiTKxtcspCnth7NlmA1MGDWEdVwEV33w1xBLkVF804waNVyQKVRk-QrflzhlItEJwH2eDExf-dGGOTkT-Wu4G_P4ynINWyQDswjm-z6Q8Uh_jGO6wtwesLwiFOEQkyR9s1W0TZ-5LLwQsmCZZr8z_I- -9ezLvtCjCT6gzOmyYbXDCDnFhXuZ7t8iG7fdQjVTsi7XmG_q-jLSYF61tSSVclACsfEPFho0uZwl2vQJkyByGfNde3zBBp2LOTN6BYvOEcuq-wM9IFj2yq6spwsHNVLwchiYjiJyAPrNv_RO_mOWmEuDVKkccDNe9-_IOsMuqupzEA_T_sP4BpN4Fy1]--></g></svg>